<?xml version="1.0" standalone="no"?>
 <!DOCTYPE svg PUBLIC "-//W3C//DTD SVG 1.1//EN" 
 "http://www.w3.org/Graphics/SVG/1.1/DTD/svg11.dtd"> 
<svg xmlns="http://www.w3.org/2000/svg" version="1.1" 
    width="29.7002cm" height="21.0007cm" viewBox="0 0 116930 82680 ">
<title>SVG Picture created as stlink-B.Cu.svg date 2017/09/06 10:17:16 </title>
  <desc>Picture generated by PCBNEW </desc>
<g style="fill:#000000; fill-opacity:1;stroke:#000000; stroke-opacity:1;
stroke-linecap:round; stroke-linejoin:round; "
 transform="translate(0 0) scale(1 1)">
</g>
<g style="fill:#000000; fill-opacity:0.0; 
stroke:#000000; stroke-width:-0.000393701; stroke-opacity:1; 
stroke-linecap:round; stroke-linejoin:round;">
</g>
<g style="fill:#000000; fill-opacity:0.0; 
stroke:#000000; stroke-width:0; stroke-opacity:1; 
stroke-linecap:round; stroke-linejoin:round;">
</g>
<g style="fill:#000000; fill-opacity:1.0; 
stroke:#000000; stroke-width:0; stroke-opacity:1; 
stroke-linecap:round; stroke-linejoin:round;">
<polyline style="fill-rule:evenodd;"
points="58356,28858
57864,28858
57864,28267
58356,28267
58356,28858
" /> 
<polyline style="fill-rule:evenodd;"
points="58356,27874
57864,27874
57864,27283
58356,27283
58356,27874
" /> 
<polyline style="fill-rule:evenodd;"
points="61348,28661
60856,28661
60856,28070
61348,28070
61348,28661
" /> 
<polyline style="fill-rule:evenodd;"
points="61348,27677
60856,27677
60856,27086
61348,27086
61348,27677
" /> 
<polyline style="fill-rule:evenodd;"
points="62253,28976
61761,28976
61761,28385
62253,28385
62253,28976
" /> 
<polyline style="fill-rule:evenodd;"
points="62253,27992
61761,27992
61761,27401
62253,27401
62253,27992
" /> 
<polyline style="fill-rule:evenodd;"
points="67141,26937
67496,26937
67496,27409
67141,27409
67141,26937
" /> 
<polyline style="fill-rule:evenodd;"
points="67141,27803
67496,27803
67496,28275
67141,28275
67141,27803
" /> 
<polyline style="fill-rule:evenodd;"
points="69744,28188
69389,28188
69389,27716
69744,27716
69744,28188
" /> 
<polyline style="fill-rule:evenodd;"
points="69744,27322
69389,27322
69389,26850
69744,26850
69744,27322
" /> 
<polyline style="fill-rule:evenodd;"
points="68244,27433
67889,27433
67889,26960
68244,26960
68244,27433
" /> 
<polyline style="fill-rule:evenodd;"
points="68244,26566
67889,26566
67889,26094
68244,26094
68244,26566
" /> 
<polyline style="fill-rule:evenodd;"
points="68952,27429
68598,27429
68598,26956
68952,26956
68952,27429
" /> 
<polyline style="fill-rule:evenodd;"
points="68952,26562
68598,26562
68598,26090
68952,26090
68952,26562
" /> 
<polyline style="fill-rule:evenodd;"
points="58767,28572
58767,28316
59381,28316
59381,28572
58767,28572
" /> 
<polyline style="fill-rule:evenodd;"
points="58767,28198
58767,27942
59381,27942
59381,28198
58767,28198
" /> 
<polyline style="fill-rule:evenodd;"
points="58767,27824
58767,27568
59381,27568
59381,27824
58767,27824
" /> 
<polyline style="fill-rule:evenodd;"
points="59830,27824
59830,27568
60444,27568
60444,27824
59830,27824
" /> 
<polyline style="fill-rule:evenodd;"
points="59830,28572
59830,28316
60444,28316
60444,28572
59830,28572
" /> 
<circle cx="68145.7" cy="33413.4" r="295.276" /> 
</g>
<g style="fill:#000000; fill-opacity:1.0; 
stroke:#000000; stroke-width:39.3701; stroke-opacity:1; 
stroke-linecap:round; stroke-linejoin:round;">
</g>
<g style="fill:#000000; fill-opacity:1.0; 
stroke:#000000; stroke-width:0; stroke-opacity:1; 
stroke-linecap:round; stroke-linejoin:round;">
<circle cx="66224.4" cy="33413.4" r="295.276" /> 
</g>
<g style="fill:#000000; fill-opacity:1.0; 
stroke:#000000; stroke-width:39.3701; stroke-opacity:1; 
stroke-linecap:round; stroke-linejoin:round;">
</g>
<g style="fill:#000000; fill-opacity:1.0; 
stroke:#000000; stroke-width:0; stroke-opacity:1; 
stroke-linecap:round; stroke-linejoin:round;">
<circle cx="59574.8" cy="33137.8" r="393.701" /> 
</g>
<g style="fill:#000000; fill-opacity:1.0; 
stroke:#000000; stroke-width:39.3701; stroke-opacity:1; 
stroke-linecap:round; stroke-linejoin:round;">
</g>
<g style="fill:#000000; fill-opacity:1.0; 
stroke:#000000; stroke-width:0; stroke-opacity:1; 
stroke-linecap:round; stroke-linejoin:round;">
<polyline style="fill-rule:evenodd;"
points="71799,29216
71799,28547
72468,28547
72468,29216
71799,29216
" /> 
</g>
<g style="fill:#000000; fill-opacity:1.0; 
stroke:#000000; stroke-width:669.291; stroke-opacity:1; 
stroke-linecap:round; stroke-linejoin:round;">
</g>
<g style="fill:#000000; fill-opacity:0.0; 
stroke:#000000; stroke-width:669.291; stroke-opacity:1; 
stroke-linecap:round; stroke-linejoin:round;">
<path d="M73133 28881
L73133 28881
" />
<path d="M72133 29881
L72133 29881
" />
<path d="M73133 29881
L73133 29881
" />
<path d="M72133 30881
L72133 30881
" />
<path d="M73133 30881
L73133 30881
" />
<path d="M72133 31881
L72133 31881
" />
<path d="M73133 31881
L73133 31881
" />
<path d="M72133 32881
L72133 32881
" />
<path d="M73133 32881
L73133 32881
" />
</g>
<g style="fill:#000000; fill-opacity:0.0; 
stroke:#000000; stroke-width:0; stroke-opacity:1; 
stroke-linecap:round; stroke-linejoin:round;">
</g>
<g style="fill:#000000; fill-opacity:1.0; 
stroke:#000000; stroke-width:0; stroke-opacity:1; 
stroke-linecap:round; stroke-linejoin:round;">
<polyline style="fill-rule:evenodd;"
points="60165,34877
60834,34877
60834,35547
60165,35547
60165,34877
" /> 
</g>
<g style="fill:#000000; fill-opacity:1.0; 
stroke:#000000; stroke-width:669.291; stroke-opacity:1; 
stroke-linecap:round; stroke-linejoin:round;">
</g>
<g style="fill:#000000; fill-opacity:0.0; 
stroke:#000000; stroke-width:669.291; stroke-opacity:1; 
stroke-linecap:round; stroke-linejoin:round;">
<path d="M59500 35212
L59500 35212
" />
<path d="M58500 35212
L58500 35212
" />
<path d="M57500 35212
L57500 35212
" />
<path d="M56500 35212
L56500 35212
" />
</g>
<g style="fill:#000000; fill-opacity:0.0; 
stroke:#000000; stroke-width:0; stroke-opacity:1; 
stroke-linecap:round; stroke-linejoin:round;">
</g>
<g style="fill:#000000; fill-opacity:1.0; 
stroke:#000000; stroke-width:0; stroke-opacity:1; 
stroke-linecap:round; stroke-linejoin:round;">
<polyline style="fill-rule:evenodd;"
points="59429,27027
58759,27027
58759,26358
59429,26358
59429,27027
" /> 
</g>
<g style="fill:#000000; fill-opacity:1.0; 
stroke:#000000; stroke-width:669.291; stroke-opacity:1; 
stroke-linecap:round; stroke-linejoin:round;">
</g>
<g style="fill:#000000; fill-opacity:0.0; 
stroke:#000000; stroke-width:669.291; stroke-opacity:1; 
stroke-linecap:round; stroke-linejoin:round;">
<path d="M60094 26692
L60094 26692
" />
</g>
<g style="fill:#000000; fill-opacity:0.0; 
stroke:#000000; stroke-width:0; stroke-opacity:1; 
stroke-linecap:round; stroke-linejoin:round;">
</g>
<g style="fill:#000000; fill-opacity:1.0; 
stroke:#000000; stroke-width:0; stroke-opacity:1; 
stroke-linecap:round; stroke-linejoin:round;">
<polyline style="fill-rule:evenodd;"
points="57057,28602
57352,28602
57352,29074
57057,29074
57057,28602
" /> 
<polyline style="fill-rule:evenodd;"
points="57057,29350
57352,29350
57352,29822
57057,29822
57057,29350
" /> 
<circle cx="55511.8" cy="29901.6" r="295.276" /> 
</g>
<g style="fill:#000000; fill-opacity:1.0; 
stroke:#000000; stroke-width:39.3701; stroke-opacity:1; 
stroke-linecap:round; stroke-linejoin:round;">
</g>
<g style="fill:#000000; fill-opacity:1.0; 
stroke:#000000; stroke-width:0; stroke-opacity:1; 
stroke-linecap:round; stroke-linejoin:round;">
<circle cx="56299.2" cy="31181.1" r="314.961" /> 
</g>
<g style="fill:#000000; fill-opacity:1.0; 
stroke:#000000; stroke-width:39.3701; stroke-opacity:1; 
stroke-linecap:round; stroke-linejoin:round;">
</g>
<g style="fill:#000000; fill-opacity:1.0; 
stroke:#000000; stroke-width:0; stroke-opacity:1; 
stroke-linecap:round; stroke-linejoin:round;">
<circle cx="56299.2" cy="30393.7" r="314.961" /> 
</g>
<g style="fill:#000000; fill-opacity:1.0; 
stroke:#000000; stroke-width:39.3701; stroke-opacity:1; 
stroke-linecap:round; stroke-linejoin:round;">
</g>
<g style="fill:#000000; fill-opacity:1.0; 
stroke:#000000; stroke-width:0; stroke-opacity:1; 
stroke-linecap:round; stroke-linejoin:round;">
<circle cx="56299.2" cy="31968.5" r="314.961" /> 
</g>
<g style="fill:#000000; fill-opacity:1.0; 
stroke:#000000; stroke-width:39.3701; stroke-opacity:1; 
stroke-linecap:round; stroke-linejoin:round;">
</g>
<g style="fill:#000000; fill-opacity:1.0; 
stroke:#000000; stroke-width:0; stroke-opacity:1; 
stroke-linecap:round; stroke-linejoin:round;">
<circle cx="56299.2" cy="29606.3" r="314.961" /> 
</g>
<g style="fill:#000000; fill-opacity:1.0; 
stroke:#000000; stroke-width:39.3701; stroke-opacity:1; 
stroke-linecap:round; stroke-linejoin:round;">
</g>
<g style="fill:#000000; fill-opacity:1.0; 
stroke:#000000; stroke-width:0; stroke-opacity:1; 
stroke-linecap:round; stroke-linejoin:round;">
<circle cx="55511.8" cy="33149.6" r="590.551" /> 
</g>
<g style="fill:#000000; fill-opacity:1.0; 
stroke:#000000; stroke-width:39.3701; stroke-opacity:1; 
stroke-linecap:round; stroke-linejoin:round;">
</g>
<g style="fill:#000000; fill-opacity:1.0; 
stroke:#000000; stroke-width:0; stroke-opacity:1; 
stroke-linecap:round; stroke-linejoin:round;">
<circle cx="55511.8" cy="28425.2" r="590.551" /> 
</g>
<g style="fill:#000000; fill-opacity:1.0; 
stroke:#000000; stroke-width:39.3701; stroke-opacity:1; 
stroke-linecap:round; stroke-linejoin:round;">
</g>
<g style="fill:#000000; fill-opacity:1.0; 
stroke:#000000; stroke-width:0; stroke-opacity:1; 
stroke-linecap:round; stroke-linejoin:round;">
<circle cx="55511.8" cy="31673.2" r="295.276" /> 
</g>
<g style="fill:#000000; fill-opacity:1.0; 
stroke:#000000; stroke-width:39.3701; stroke-opacity:1; 
stroke-linecap:round; stroke-linejoin:round;">
</g>
<g style="fill:#000000; fill-opacity:1.0; 
stroke:#000000; stroke-width:0; stroke-opacity:1; 
stroke-linecap:round; stroke-linejoin:round;">
<circle cx="60157.5" cy="30167.3" r="354.331" /> 
</g>
<g style="fill:#000000; fill-opacity:1.0; 
stroke:#000000; stroke-width:39.3701; stroke-opacity:1; 
stroke-linecap:round; stroke-linejoin:round;">
</g>
<g style="fill:#000000; fill-opacity:1.0; 
stroke:#000000; stroke-width:0; stroke-opacity:1; 
stroke-linecap:round; stroke-linejoin:round;">
<circle cx="63224.4" cy="34925.2" r="354.331" /> 
</g>
<g style="fill:#000000; fill-opacity:1.0; 
stroke:#000000; stroke-width:39.3701; stroke-opacity:1; 
stroke-linecap:round; stroke-linejoin:round;">
</g>
<g style="fill:#000000; fill-opacity:1.0; 
stroke:#000000; stroke-width:0; stroke-opacity:1; 
stroke-linecap:round; stroke-linejoin:round;">
<circle cx="64511.8" cy="27307.1" r="354.331" /> 
</g>
<g style="fill:#000000; fill-opacity:1.0; 
stroke:#000000; stroke-width:39.3701; stroke-opacity:1; 
stroke-linecap:round; stroke-linejoin:round;">
</g>
<g style="fill:#000000; fill-opacity:1.0; 
stroke:#000000; stroke-width:0; stroke-opacity:1; 
stroke-linecap:round; stroke-linejoin:round;">
<circle cx="68689" cy="31815" r="354.331" /> 
</g>
<g style="fill:#000000; fill-opacity:1.0; 
stroke:#000000; stroke-width:39.3701; stroke-opacity:1; 
stroke-linecap:round; stroke-linejoin:round;">
</g>
<g style="fill:#000000; fill-opacity:1.0; 
stroke:#000000; stroke-width:0; stroke-opacity:1; 
stroke-linecap:round; stroke-linejoin:round;">
<circle cx="65905.5" cy="27559.1" r="354.331" /> 
</g>
<g style="fill:#000000; fill-opacity:1.0; 
stroke:#000000; stroke-width:39.3701; stroke-opacity:1; 
stroke-linecap:round; stroke-linejoin:round;">
</g>
<g style="fill:#000000; fill-opacity:1.0; 
stroke:#000000; stroke-width:0; stroke-opacity:1; 
stroke-linecap:round; stroke-linejoin:round;">
<circle cx="62657.5" cy="33413.4" r="354.331" /> 
</g>
<g style="fill:#000000; fill-opacity:1.0; 
stroke:#000000; stroke-width:39.3701; stroke-opacity:1; 
stroke-linecap:round; stroke-linejoin:round;">
</g>
<g style="fill:#000000; fill-opacity:1.0; 
stroke:#000000; stroke-width:0; stroke-opacity:1; 
stroke-linecap:round; stroke-linejoin:round;">
<circle cx="62165.4" cy="26456.7" r="354.331" /> 
</g>
<g style="fill:#000000; fill-opacity:1.0; 
stroke:#000000; stroke-width:39.3701; stroke-opacity:1; 
stroke-linecap:round; stroke-linejoin:round;">
</g>
<g style="fill:#000000; fill-opacity:1.0; 
stroke:#000000; stroke-width:0; stroke-opacity:1; 
stroke-linecap:round; stroke-linejoin:round;">
<circle cx="56496.1" cy="34055.1" r="354.331" /> 
</g>
<g style="fill:#000000; fill-opacity:1.0; 
stroke:#000000; stroke-width:39.3701; stroke-opacity:1; 
stroke-linecap:round; stroke-linejoin:round;">
</g>
<g style="fill:#000000; fill-opacity:1.0; 
stroke:#000000; stroke-width:157.48; stroke-opacity:1; 
stroke-linecap:round; stroke-linejoin:round;">
</g>
<g style="fill:#000000; fill-opacity:0.0; 
stroke:#000000; stroke-width:157.48; stroke-opacity:1; 
stroke-linecap:round; stroke-linejoin:round;">
<path d="M62007 28681
L63547 28681
" />
<path d="M63547 28681
L64511 27307
" />
<path d="M60157 30167
L61092 30167
" />
<path d="M62007 29251
L62007 28681
" />
<path d="M61092 30167
L62007 29251
" />
<path d="M62007 28681
L61417 28681
" />
<path d="M61417 28681
L61102 28366
" />
<path d="M67318 28039
L67318 28027
" />
<path d="M67318 28027
L66141 26850
" />
<path d="M66141 26850
L64688 27129
" />
<path d="M64688 27129
L64511 27307
" />
<path d="M60157 30167
L60157 30196
" />
<path d="M60157 30196
L61771 31811
" />
<path d="M61771 31811
L61771 33472
" />
<path d="M61771 33472
L63224 34925
" />
<path d="M67318 28039
L67318 30566
" />
<path d="M67342 30562
L68688 31814
" />
</g>
<g style="fill:#000000; fill-opacity:0.0; 
stroke:#000000; stroke-width:98.4252; stroke-opacity:1; 
stroke-linecap:round; stroke-linejoin:round;">
<path d="M67318 30566
L67342 30590
" />
<path d="M67342 30590
L67342 30562
" />
<path d="M67177 27897
L67318 28039
" />
</g>
<g style="fill:#000000; fill-opacity:0.0; 
stroke:#000000; stroke-width:157.48; stroke-opacity:1; 
stroke-linecap:round; stroke-linejoin:round;">
<path d="M60137 28444
L60952 28456
" />
</g>
<g style="fill:#000000; fill-opacity:0.0; 
stroke:#000000; stroke-width:98.4252; stroke-opacity:1; 
stroke-linecap:round; stroke-linejoin:round;">
<path d="M60952 28456
L61035 28374
" />
<path d="M63192 34956
L63192 34976
" />
<path d="M63224 34925
L63192 34956
" />
<path d="M64519 27314
L64519 27342
" />
<path d="M64511 27307
L64519 27314
" />
<path d="M68692 31818
L68692 31822
" />
<path d="M68688 31814
L68692 31818
" />
</g>
<g style="fill:#000000; fill-opacity:0.0; 
stroke:#000000; stroke-width:157.48; stroke-opacity:1; 
stroke-linecap:round; stroke-linejoin:round;">
<path d="M58503 27283
L58503 26889
" />
<path d="M58740 27283
L58503 27283
" />
<path d="M58503 27283
L58405 27283
" />
<path d="M58405 27283
L58110 27578
" />
<path d="M58740 27283
L61003 27283
" />
<path d="M61003 27283
L61102 27381
" />
<path d="M59074 28070
L58602 28070
" />
<path d="M58602 28070
L58110 27578
" />
<path d="M58267 27696
L58188 27775
" />
</g>
<g style="fill:#000000; fill-opacity:0.0; 
stroke:#000000; stroke-width:98.4252; stroke-opacity:1; 
stroke-linecap:round; stroke-linejoin:round;">
<path d="M56023 32047
L56047 32047
" />
</g>
<g style="fill:#000000; fill-opacity:0.0; 
stroke:#000000; stroke-width:157.48; stroke-opacity:1; 
stroke-linecap:round; stroke-linejoin:round;">
<path d="M65905 27559
L65956 30114
" />
<path d="M65956 30114
L62657 33413
" />
</g>
<g style="fill:#000000; fill-opacity:0.0; 
stroke:#000000; stroke-width:118.11; stroke-opacity:1; 
stroke-linecap:round; stroke-linejoin:round;">
<path d="M62165 26456
L62271 26456
" />
<path d="M67846 26110
L68066 26330
" />
<path d="M62618 26110
L67846 26110
" />
<path d="M62271 26456
L62618 26110
" />
</g>
<g style="fill:#000000; fill-opacity:0.0; 
stroke:#000000; stroke-width:157.48; stroke-opacity:1; 
stroke-linecap:round; stroke-linejoin:round;">
<path d="M67940 26456
L68066 26330
" />
<path d="M68066 26330
L68771 26330
" />
</g>
<g style="fill:#000000; fill-opacity:0.0; 
stroke:#000000; stroke-width:98.4252; stroke-opacity:1; 
stroke-linecap:round; stroke-linejoin:round;">
<path d="M68771 26330
L68775 26326
" />
<path d="M68035 26299
L68066 26330
" />
</g>
<g style="fill:#000000; fill-opacity:0.0; 
stroke:#000000; stroke-width:157.48; stroke-opacity:1; 
stroke-linecap:round; stroke-linejoin:round;">
<path d="M56496 34055
L61338 34055
" />
<path d="M57637 29586
L57854 29586
" />
<path d="M72133 33771
L72133 32881
" />
<path d="M70314 35590
L72133 33771
" />
<path d="M62716 35590
L70314 35590
" />
<path d="M61338 34212
L62716 35590
" />
<path d="M61338 33070
L61338 34055
" />
<path d="M61338 34055
L61338 34212
" />
<path d="M57854 29586
L61338 33070
" />
<path d="M57204 29586
L57637 29586
" />
<path d="M57637 29586
L57736 29586
" />
<path d="M58110 29212
L58110 28562
" />
<path d="M57736 29586
L58110 29212
" />
<path d="M56299 29606
L57185 29606
" />
<path d="M57185 29606
L57204 29586
" />
</g>
<g style="fill:#000000; fill-opacity:0.0; 
stroke:#000000; stroke-width:118.11; stroke-opacity:1; 
stroke-linecap:round; stroke-linejoin:round;">
<path d="M59074 28444
L59468 28444
" />
<path d="M59507 27696
L59074 27696
" />
<path d="M59606 27795
L59507 27696
" />
<path d="M59606 28307
L59606 27795
" />
<path d="M59468 28444
L59606 28307
" />
</g>
<g style="fill:#000000; fill-opacity:0.0; 
stroke:#000000; stroke-width:157.48; stroke-opacity:1; 
stroke-linecap:round; stroke-linejoin:round;">
<path d="M59074 28444
L58228 28444
" />
<path d="M58228 28444
L58110 28562
" />
</g>
<g style="fill:#000000; fill-opacity:0.0; 
stroke:#000000; stroke-width:98.4252; stroke-opacity:1; 
stroke-linecap:round; stroke-linejoin:round;">
<path d="M58188 28759
L58188 28594
" />
<path d="M58996 27775
L59074 27696
" />
</g>
<g style="fill:#000000; fill-opacity:0.0; 
stroke:#000000; stroke-width:157.48; stroke-opacity:1; 
stroke-linecap:round; stroke-linejoin:round;">
<path d="M67318 27173
L68043 27173
" />
</g>
<g style="fill:#000000; fill-opacity:0.0; 
stroke:#000000; stroke-width:98.4252; stroke-opacity:1; 
stroke-linecap:round; stroke-linejoin:round;">
<path d="M68043 27173
L68066 27196
" />
</g>
<g style="fill:#000000; fill-opacity:0.0; 
stroke:#000000; stroke-width:157.48; stroke-opacity:1; 
stroke-linecap:round; stroke-linejoin:round;">
<path d="M68775 27192
L69460 27192
" />
</g>
<g style="fill:#000000; fill-opacity:0.0; 
stroke:#000000; stroke-width:98.4252; stroke-opacity:1; 
stroke-linecap:round; stroke-linejoin:round;">
<path d="M69460 27192
L69566 27086
" />
<path d="M68775 27192
L68783 27192
" />
</g>
<g style="fill:#000000; fill-opacity:1.0; 
stroke:#000000; stroke-width:196.85; stroke-opacity:1; 
stroke-linecap:round; stroke-linejoin:round;">
<polyline style="fill-rule:evenodd;"
points="74557,36120
53970,36120
53970,35201
55948,35201
55948,35223
55990,35434
56110,35613
56289,35732
56500,35774
56710,35732
56889,35613
57000,35448
57110,35613
57289,35732
57500,35774
57710,35732
57889,35613
57954,35516
57963,35543
58131,35723
58354,35825
58399,35834
58498,35768
58498,35214
58490,35214
58490,35211
58498,35211
58498,34656
58501,34656
58501,35211
58509,35211
58509,35214
58501,35214
58501,35768
58600,35834
58645,35825
58868,35723
59036,35543
59045,35516
59110,35613
59289,35732
59500,35774
59710,35732
59889,35613
59944,35531
59944,35547
59959,35627
60007,35701
60079,35750
60165,35768
60834,35768
60914,35752
60988,35705
61038,35633
61055,35547
61055,34877
61040,34797
60992,34724
60920,34674
60834,34657
60165,34657
60085,34672
60011,34719
59961,34792
59944,34877
59944,34894
59889,34812
59710,34692
59500,34650
59289,34692
59110,34812
59045,34908
59036,34882
58868,34702
58645,34599
58600,34590
58501,34656
58498,34656
58399,34590
58354,34599
58131,34702
57963,34882
57954,34908
57889,34812
57710,34692
57500,34650
57289,34692
57110,34812
57000,34977
56889,34812
56710,34692
56500,34650
56289,34692
56110,34812
55990,34990
55948,35201
53970,35201
53970,33292
54619,33292
54742,33622
54780,33679
54924,33734
55509,33149
54924,32564
54780,32620
54633,32940
54619,33292
53970,33292
53970,29012
54926,29012
54982,29156
55302,29303
55654,29317
55944,29209
55848,29304
55784,29460
55614,29389
55410,29389
55222,29467
55078,29611
55000,29799
54999,30002
55077,30191
55221,30335
55409,30413
55613,30413
55767,30349
55767,30498
55848,30694
55941,30787
55848,30879
55767,31074
55767,31225
55614,31161
55410,31161
55222,31239
55078,31382
55000,31570
54999,31774
55077,31962
55221,32106
55409,32184
55613,32185
55713,32143
55768,32292
55721,32271
55368,32257
55038,32380
54982,32417
54926,32562
55511,33147
55517,33141
55519,33144
55514,33149
55519,33155
55517,33157
55511,33151
54926,33737
54982,33881
55302,34028
55654,34041
55925,33941
55925,33941
55925,34168
56011,34378
56172,34538
56382,34625
56609,34626
56819,34539
56979,34378
56991,34350
61082,34350
61129,34421
62507,35799
62603,35863
62716,35885
70314,35885
70427,35863
70523,35799
72342,33980
72379,33925
72406,33884
72429,33771
72429,33341
72534,33271
72592,33184
72623,33250
72803,33418
73033,33503
73132,33437
73132,32883
73135,32883
73135,33437
73233,33503
73464,33418
73644,33250
73746,33027
73755,32981
73689,32883
73135,32883
73132,32883
73124,32883
73124,32880
73132,32880
73132,31883
73135,31883
73135,32880
73689,32880
73755,32781
73746,32736
73644,32512
73503,32381
73644,32250
73746,32027
73755,31981
73689,31883
73135,31883
73132,31883
73124,31883
73124,31880
73132,31880
73132,31872
73135,31872
73135,31880
73689,31880
73755,31781
73746,31736
73644,31512
73464,31345
73438,31335
73534,31271
73653,31092
73695,30881
73653,30670
73534,30492
73369,30381
73534,30271
73653,30092
73695,29881
73653,29670
73534,29492
73369,29381
73534,29271
73653,29092
73695,28881
73653,28670
73534,28492
73355,28372
73144,28330
73123,28330
72912,28372
72733,28492
72689,28558
72689,28547
72674,28467
72626,28393
72554,28343
72468,28326
71799,28326
71718,28341
71645,28388
71595,28461
71578,28547
71578,29216
71593,29296
71640,29370
71713,29419
71799,29437
71815,29437
71733,29492
71613,29670
71571,29881
71613,30092
71733,30271
71898,30381
71733,30492
71613,30670
71571,30881
71613,31092
71733,31271
71898,31381
71733,31492
71613,31670
71571,31881
71613,32092
71733,32271
71898,32381
71733,32492
71613,32670
71571,32881
71613,33092
71733,33271
71838,33341
71838,33649
70192,35295
63661,35295
63708,35248
63795,35039
63795,34812
63708,34602
63548,34441
63338,34354
63111,34354
63082,34366
62701,33984
62770,33984
62980,33897
63141,33737
63228,33527
63228,33514
65712,33514
65790,33702
65934,33847
66122,33925
66325,33925
66513,33847
66658,33703
66736,33515
66736,33514
67633,33514
67711,33702
67855,33847
68043,33925
68247,33925
68435,33847
68579,33703
68657,33515
68657,33312
68579,33123
68435,32979
68247,32901
68044,32901
67856,32979
67712,33123
67633,33311
67633,33514
66736,33514
66736,33312
66658,33123
66514,32979
66326,32901
66123,32901
65934,32979
65790,33123
65712,33311
65712,33514
63228,33514
63228,33300
63216,33271
66165,30322
66167,30320
66169,30318
66199,30272
66229,30227
66230,30224
66231,30221
66241,30167
66251,30114
66251,30111
66251,30108
66210,28050
66228,28043
66389,27882
66476,27673
66476,27602
66920,28047
66920,28275
66936,28355
66983,28429
67023,28456
67023,30566
67046,30679
67110,30775
67205,30839
67206,30839
68122,31691
68118,31700
68118,31928
68204,32137
68365,32298
68574,32385
68802,32385
69011,32299
69172,32138
69259,31929
69259,31701
69173,31492
69012,31331
68803,31244
68575,31243
68529,31263
67614,30412
67614,28456
67650,28433
67699,28361
67716,28275
67716,28028
69094,28028
69094,28247
69139,28356
69222,28439
69331,28484
69491,28484
69565,28410
69565,27954
69568,27954
69568,28410
69642,28484
69802,28484
69911,28439
69994,28356
70039,28247
70039,28028
69965,27954
69568,27954
69565,27954
69168,27954
69094,28028
67716,28028
67716,27803
67701,27722
67654,27649
67590,27605
67650,27567
67685,27515
67731,27587
67803,27636
67889,27653
68244,27653
68324,27638
68398,27591
68422,27555
68440,27583
68512,27632
68598,27649
68952,27649
69032,27634
69106,27587
69156,27515
69161,27488
69200,27488
69139,27549
69094,27657
69094,27877
69168,27951
69565,27951
69565,27943
69568,27943
69568,27951
69965,27951
70039,27877
70039,27657
69994,27549
69911,27466
69908,27465
69947,27408
69964,27322
69964,26850
69949,26770
69902,26696
69829,26647
69744,26629
69389,26629
69309,26644
69235,26692
69186,26764
69168,26850
69168,26897
69162,26897
69158,26876
69111,26802
69047,26759
69106,26721
69156,26648
69173,26562
69173,26090
69158,26010
69111,25936
69038,25887
68952,25869
68598,25869
68518,25884
68444,25932
68420,25968
68402,25940
68329,25891
68244,25873
67978,25873
67951,25855
67846,25834
62618,25834
62512,25855
62423,25915
62401,25936
62279,25885
62052,25885
61842,25972
61681,26132
61594,26342
61594,26569
61681,26779
61841,26940
62051,27027
62278,27027
62488,26940
62649,26780
62736,26570
62736,26385
67659,26385
67645,26456
67668,26569
67670,26572
67684,26647
67731,26720
67795,26764
67735,26802
67700,26854
67654,26783
67581,26733
67496,26716
67141,26716
67061,26731
66987,26778
66938,26851
66920,26937
66920,27212
66350,26641
66327,26625
66307,26605
66279,26594
66254,26577
66227,26572
66201,26561
66171,26560
66141,26555
66114,26560
66085,26560
64798,26808
64625,26736
64398,26736
64188,26822
64028,26983
63941,27193
63940,27420
63989,27537
63393,28385
62474,28385
62459,28305
62419,28243
62421,28242
62504,28159
62549,28050
62549,27772
62475,27698
62009,27698
62009,27706
62006,27706
62006,27698
61998,27698
61998,27695
62006,27695
62006,27180
62009,27180
62009,27695
62475,27695
62549,27621
62549,27342
62504,27234
62421,27151
62312,27106
62083,27106
62009,27180
62006,27180
61932,27106
61703,27106
61643,27130
61643,27027
61598,26919
61515,26836
61407,26791
61177,26791
61103,26865
61103,27380
61111,27380
61111,27383
61103,27383
61103,27391
61100,27391
61100,27383
60634,27383
60603,27415
60603,27414
60530,27365
60444,27348
59830,27348
59750,27363
59676,27410
59642,27461
59613,27442
59549,27429
59540,27414
59467,27365
59381,27348
58767,27348
58687,27363
58651,27386
58651,27224
58646,27212
58673,27230
58759,27248
59429,27248
59509,27233
59583,27185
59632,27113
59649,27027
59649,27011
59704,27093
59883,27212
60094,27254
60305,27212
60484,27093
60528,27027
60561,27027
60561,27306
60634,27380
61100,27380
61100,26865
61026,26791
60797,26791
60689,26836
60605,26919
60561,27027
60528,27027
60603,26914
60645,26703
60645,26682
60603,26471
60484,26292
60305,26172
60094,26130
59883,26172
59704,26292
59649,26374
59649,26358
59634,26278
59587,26204
59515,26154
59429,26137
58759,26137
58679,26152
58605,26200
58556,26272
58539,26358
58539,27027
58543,27053
58523,27033
58415,26988
58185,26988
58111,27062
58111,27577
58119,27577
58119,27580
58111,27580
58111,27588
58108,27588
58108,27580
57642,27580
57568,27654
57568,27932
57613,28041
57696,28124
57699,28125
57660,28181
57643,28267
57643,28533
57602,28435
57519,28352
57411,28307
57280,28307
57206,28380
57206,28837
57214,28837
57214,28840
57206,28840
57206,28848
57203,28848
57203,28840
56835,28840
56761,28913
56761,29133
56806,29242
56849,29284
56844,29311
56752,29311
56750,29305
56600,29155
56405,29074
56193,29074
56050,29134
56097,29012
55511,28427
54926,29012
53970,29012
53970,28568
54619,28568
54742,28898
54780,28954
54924,29010
55509,28425
55514,28425
56099,29010
56243,28954
56390,28634
56393,28543
56761,28543
56761,28763
56835,28837
57203,28837
57203,28380
57129,28307
56998,28307
56889,28352
56806,28435
56761,28543
56393,28543
56403,28282
56281,27951
56243,27895
56099,27839
55514,28425
55509,28425
54924,27839
54780,27895
54633,28215
54619,28568
53970,28568
53970,27837
54926,27837
55511,28422
56097,27837
56041,27693
55721,27546
55368,27533
55038,27655
54982,27693
54926,27837
53970,27837
53970,27224
57568,27224
57568,27503
57642,27577
58108,27577
58108,27062
58034,26988
57805,26988
57696,27033
57613,27116
57568,27224
53970,27224
53970,25690
74557,25690
74557,36120
" /> 
<polyline style="fill-rule:evenodd;"
points="61043,33193
61043,33759
56991,33759
56980,33732
56819,33571
56610,33484
56383,33484
56321,33509
56390,33358
56394,33258
58964,33258
59057,33483
59228,33654
59452,33747
59695,33748
59920,33655
60091,33483
60184,33259
60185,33016
60092,32792
59920,32620
59696,32527
59453,32527
59229,32620
59057,32791
58964,33015
58964,33258
56394,33258
56403,33006
56281,32676
56243,32620
56099,32564
56110,32553
56155,32573
56398,32582
56625,32498
56663,32472
56685,32357
56299,31970
56293,31976
56291,31974
56296,31968
56301,31968
56688,32355
56803,32332
56904,32112
56913,31869
56828,31642
56803,31604
56688,31581
56301,31968
56296,31968
56291,31962
56293,31960
56299,31966
56685,31579
56680,31551
56749,31482
56830,31287
56830,31075
56750,30880
56657,30787
56749,30695
56830,30499
56830,30288
56750,30093
56657,29999
56749,29907
56752,29901
56851,29901
56851,29903
56898,29976
56971,30026
57057,30043
57352,30043
57432,30028
57506,29981
57555,29908
57561,29881
57732,29881
61043,33193
" /> 
<polyline style="fill-rule:evenodd;"
points="59076,28069
59084,28069
59084,28072
59076,28072
59076,28080
59073,28080
59073,28072
59065,28072
59065,28069
59073,28069
59073,28061
59076,28061
59076,28069
" /> 
</g>
<g style="fill:#FFFFFF; fill-opacity:1.0; 
stroke:#FFFFFF; stroke-width:196.85; stroke-opacity:1; 
stroke-linecap:round; stroke-linejoin:round;">
</g>
<g style="fill:#FFFFFF; fill-opacity:1.0; 
stroke:#FFFFFF; stroke-width:0; stroke-opacity:1; 
stroke-linecap:round; stroke-linejoin:round;">
<circle cx="60157.5" cy="30167.3" r="68.8976" /> 
</g>
<g style="fill:#FFFFFF; fill-opacity:1.0; 
stroke:#FFFFFF; stroke-width:39.3701; stroke-opacity:1; 
stroke-linecap:round; stroke-linejoin:round;">
</g>
<g style="fill:#FFFFFF; fill-opacity:1.0; 
stroke:#FFFFFF; stroke-width:0; stroke-opacity:1; 
stroke-linecap:round; stroke-linejoin:round;">
<circle cx="63224.4" cy="34925.2" r="68.8976" /> 
</g>
<g style="fill:#FFFFFF; fill-opacity:1.0; 
stroke:#FFFFFF; stroke-width:39.3701; stroke-opacity:1; 
stroke-linecap:round; stroke-linejoin:round;">
</g>
<g style="fill:#FFFFFF; fill-opacity:1.0; 
stroke:#FFFFFF; stroke-width:0; stroke-opacity:1; 
stroke-linecap:round; stroke-linejoin:round;">
<circle cx="64511.8" cy="27307.1" r="68.8976" /> 
</g>
<g style="fill:#FFFFFF; fill-opacity:1.0; 
stroke:#FFFFFF; stroke-width:39.3701; stroke-opacity:1; 
stroke-linecap:round; stroke-linejoin:round;">
</g>
<g style="fill:#FFFFFF; fill-opacity:1.0; 
stroke:#FFFFFF; stroke-width:0; stroke-opacity:1; 
stroke-linecap:round; stroke-linejoin:round;">
<circle cx="68689" cy="31815" r="68.8976" /> 
</g>
<g style="fill:#FFFFFF; fill-opacity:1.0; 
stroke:#FFFFFF; stroke-width:39.3701; stroke-opacity:1; 
stroke-linecap:round; stroke-linejoin:round;">
</g>
<g style="fill:#FFFFFF; fill-opacity:1.0; 
stroke:#FFFFFF; stroke-width:0; stroke-opacity:1; 
stroke-linecap:round; stroke-linejoin:round;">
<circle cx="65905.5" cy="27559.1" r="68.8976" /> 
</g>
<g style="fill:#FFFFFF; fill-opacity:1.0; 
stroke:#FFFFFF; stroke-width:39.3701; stroke-opacity:1; 
stroke-linecap:round; stroke-linejoin:round;">
</g>
<g style="fill:#FFFFFF; fill-opacity:1.0; 
stroke:#FFFFFF; stroke-width:0; stroke-opacity:1; 
stroke-linecap:round; stroke-linejoin:round;">
<circle cx="62657.5" cy="33413.4" r="68.8976" /> 
</g>
<g style="fill:#FFFFFF; fill-opacity:1.0; 
stroke:#FFFFFF; stroke-width:39.3701; stroke-opacity:1; 
stroke-linecap:round; stroke-linejoin:round;">
</g>
<g style="fill:#FFFFFF; fill-opacity:1.0; 
stroke:#FFFFFF; stroke-width:0; stroke-opacity:1; 
stroke-linecap:round; stroke-linejoin:round;">
<circle cx="62165.4" cy="26456.7" r="68.8976" /> 
</g>
<g style="fill:#FFFFFF; fill-opacity:1.0; 
stroke:#FFFFFF; stroke-width:39.3701; stroke-opacity:1; 
stroke-linecap:round; stroke-linejoin:round;">
</g>
<g style="fill:#FFFFFF; fill-opacity:1.0; 
stroke:#FFFFFF; stroke-width:0; stroke-opacity:1; 
stroke-linecap:round; stroke-linejoin:round;">
<circle cx="56496.1" cy="34055.1" r="68.8976" /> 
</g>
<g style="fill:#FFFFFF; fill-opacity:1.0; 
stroke:#FFFFFF; stroke-width:39.3701; stroke-opacity:1; 
stroke-linecap:round; stroke-linejoin:round;">
</g>
<g style="fill:#FFFFFF; fill-opacity:1.0; 
stroke:#FFFFFF; stroke-width:0; stroke-opacity:1; 
stroke-linecap:round; stroke-linejoin:round;">
<circle cx="68145.7" cy="33413.4" r="68.8976" /> 
</g>
<g style="fill:#FFFFFF; fill-opacity:1.0; 
stroke:#FFFFFF; stroke-width:39.3701; stroke-opacity:1; 
stroke-linecap:round; stroke-linejoin:round;">
</g>
<g style="fill:#FFFFFF; fill-opacity:1.0; 
stroke:#FFFFFF; stroke-width:0; stroke-opacity:1; 
stroke-linecap:round; stroke-linejoin:round;">
<circle cx="66224.4" cy="33413.4" r="68.8976" /> 
</g>
<g style="fill:#FFFFFF; fill-opacity:1.0; 
stroke:#FFFFFF; stroke-width:39.3701; stroke-opacity:1; 
stroke-linecap:round; stroke-linejoin:round;">
</g>
<g style="fill:#FFFFFF; fill-opacity:1.0; 
stroke:#FFFFFF; stroke-width:0; stroke-opacity:1; 
stroke-linecap:round; stroke-linejoin:round;">
<circle cx="59574.8" cy="33137.8" r="68.8976" /> 
</g>
<g style="fill:#FFFFFF; fill-opacity:1.0; 
stroke:#FFFFFF; stroke-width:39.3701; stroke-opacity:1; 
stroke-linecap:round; stroke-linejoin:round;">
</g>
<g style="fill:#FFFFFF; fill-opacity:1.0; 
stroke:#FFFFFF; stroke-width:0; stroke-opacity:1; 
stroke-linecap:round; stroke-linejoin:round;">
<circle cx="72133.9" cy="28881.9" r="68.8976" /> 
</g>
<g style="fill:#FFFFFF; fill-opacity:1.0; 
stroke:#FFFFFF; stroke-width:39.3701; stroke-opacity:1; 
stroke-linecap:round; stroke-linejoin:round;">
</g>
<g style="fill:#FFFFFF; fill-opacity:1.0; 
stroke:#FFFFFF; stroke-width:0; stroke-opacity:1; 
stroke-linecap:round; stroke-linejoin:round;">
<circle cx="73133.9" cy="28881.9" r="68.8976" /> 
</g>
<g style="fill:#FFFFFF; fill-opacity:1.0; 
stroke:#FFFFFF; stroke-width:39.3701; stroke-opacity:1; 
stroke-linecap:round; stroke-linejoin:round;">
</g>
<g style="fill:#FFFFFF; fill-opacity:1.0; 
stroke:#FFFFFF; stroke-width:0; stroke-opacity:1; 
stroke-linecap:round; stroke-linejoin:round;">
<circle cx="72133.9" cy="29881.9" r="68.8976" /> 
</g>
<g style="fill:#FFFFFF; fill-opacity:1.0; 
stroke:#FFFFFF; stroke-width:39.3701; stroke-opacity:1; 
stroke-linecap:round; stroke-linejoin:round;">
</g>
<g style="fill:#FFFFFF; fill-opacity:1.0; 
stroke:#FFFFFF; stroke-width:0; stroke-opacity:1; 
stroke-linecap:round; stroke-linejoin:round;">
<circle cx="73133.9" cy="29881.9" r="68.8976" /> 
</g>
<g style="fill:#FFFFFF; fill-opacity:1.0; 
stroke:#FFFFFF; stroke-width:39.3701; stroke-opacity:1; 
stroke-linecap:round; stroke-linejoin:round;">
</g>
<g style="fill:#FFFFFF; fill-opacity:1.0; 
stroke:#FFFFFF; stroke-width:0; stroke-opacity:1; 
stroke-linecap:round; stroke-linejoin:round;">
<circle cx="72133.9" cy="30881.9" r="68.8976" /> 
</g>
<g style="fill:#FFFFFF; fill-opacity:1.0; 
stroke:#FFFFFF; stroke-width:39.3701; stroke-opacity:1; 
stroke-linecap:round; stroke-linejoin:round;">
</g>
<g style="fill:#FFFFFF; fill-opacity:1.0; 
stroke:#FFFFFF; stroke-width:0; stroke-opacity:1; 
stroke-linecap:round; stroke-linejoin:round;">
<circle cx="73133.9" cy="30881.9" r="68.8976" /> 
</g>
<g style="fill:#FFFFFF; fill-opacity:1.0; 
stroke:#FFFFFF; stroke-width:39.3701; stroke-opacity:1; 
stroke-linecap:round; stroke-linejoin:round;">
</g>
<g style="fill:#FFFFFF; fill-opacity:1.0; 
stroke:#FFFFFF; stroke-width:0; stroke-opacity:1; 
stroke-linecap:round; stroke-linejoin:round;">
<circle cx="72133.9" cy="31881.9" r="68.8976" /> 
</g>
<g style="fill:#FFFFFF; fill-opacity:1.0; 
stroke:#FFFFFF; stroke-width:39.3701; stroke-opacity:1; 
stroke-linecap:round; stroke-linejoin:round;">
</g>
<g style="fill:#FFFFFF; fill-opacity:1.0; 
stroke:#FFFFFF; stroke-width:0; stroke-opacity:1; 
stroke-linecap:round; stroke-linejoin:round;">
<circle cx="73133.9" cy="31881.9" r="68.8976" /> 
</g>
<g style="fill:#FFFFFF; fill-opacity:1.0; 
stroke:#FFFFFF; stroke-width:39.3701; stroke-opacity:1; 
stroke-linecap:round; stroke-linejoin:round;">
</g>
<g style="fill:#FFFFFF; fill-opacity:1.0; 
stroke:#FFFFFF; stroke-width:0; stroke-opacity:1; 
stroke-linecap:round; stroke-linejoin:round;">
<circle cx="72133.9" cy="32881.9" r="68.8976" /> 
</g>
<g style="fill:#FFFFFF; fill-opacity:1.0; 
stroke:#FFFFFF; stroke-width:39.3701; stroke-opacity:1; 
stroke-linecap:round; stroke-linejoin:round;">
</g>
<g style="fill:#FFFFFF; fill-opacity:1.0; 
stroke:#FFFFFF; stroke-width:0; stroke-opacity:1; 
stroke-linecap:round; stroke-linejoin:round;">
<circle cx="73133.9" cy="32881.9" r="68.8976" /> 
</g>
<g style="fill:#FFFFFF; fill-opacity:1.0; 
stroke:#FFFFFF; stroke-width:39.3701; stroke-opacity:1; 
stroke-linecap:round; stroke-linejoin:round;">
</g>
<g style="fill:#FFFFFF; fill-opacity:1.0; 
stroke:#FFFFFF; stroke-width:0; stroke-opacity:1; 
stroke-linecap:round; stroke-linejoin:round;">
<circle cx="60500" cy="35212.6" r="68.8976" /> 
</g>
<g style="fill:#FFFFFF; fill-opacity:1.0; 
stroke:#FFFFFF; stroke-width:39.3701; stroke-opacity:1; 
stroke-linecap:round; stroke-linejoin:round;">
</g>
<g style="fill:#FFFFFF; fill-opacity:1.0; 
stroke:#FFFFFF; stroke-width:0; stroke-opacity:1; 
stroke-linecap:round; stroke-linejoin:round;">
<circle cx="59500" cy="35212.6" r="68.8976" /> 
</g>
<g style="fill:#FFFFFF; fill-opacity:1.0; 
stroke:#FFFFFF; stroke-width:39.3701; stroke-opacity:1; 
stroke-linecap:round; stroke-linejoin:round;">
</g>
<g style="fill:#FFFFFF; fill-opacity:1.0; 
stroke:#FFFFFF; stroke-width:0; stroke-opacity:1; 
stroke-linecap:round; stroke-linejoin:round;">
<circle cx="58500" cy="35212.6" r="68.8976" /> 
</g>
<g style="fill:#FFFFFF; fill-opacity:1.0; 
stroke:#FFFFFF; stroke-width:39.3701; stroke-opacity:1; 
stroke-linecap:round; stroke-linejoin:round;">
</g>
<g style="fill:#FFFFFF; fill-opacity:1.0; 
stroke:#FFFFFF; stroke-width:0; stroke-opacity:1; 
stroke-linecap:round; stroke-linejoin:round;">
<circle cx="57500" cy="35212.6" r="68.8976" /> 
</g>
<g style="fill:#FFFFFF; fill-opacity:1.0; 
stroke:#FFFFFF; stroke-width:39.3701; stroke-opacity:1; 
stroke-linecap:round; stroke-linejoin:round;">
</g>
<g style="fill:#FFFFFF; fill-opacity:1.0; 
stroke:#FFFFFF; stroke-width:0; stroke-opacity:1; 
stroke-linecap:round; stroke-linejoin:round;">
<circle cx="56500" cy="35212.6" r="68.8976" /> 
</g>
<g style="fill:#FFFFFF; fill-opacity:1.0; 
stroke:#FFFFFF; stroke-width:39.3701; stroke-opacity:1; 
stroke-linecap:round; stroke-linejoin:round;">
</g>
<g style="fill:#FFFFFF; fill-opacity:1.0; 
stroke:#FFFFFF; stroke-width:0; stroke-opacity:1; 
stroke-linecap:round; stroke-linejoin:round;">
<circle cx="59094.5" cy="26692.9" r="68.8976" /> 
</g>
<g style="fill:#FFFFFF; fill-opacity:1.0; 
stroke:#FFFFFF; stroke-width:39.3701; stroke-opacity:1; 
stroke-linecap:round; stroke-linejoin:round;">
</g>
<g style="fill:#FFFFFF; fill-opacity:1.0; 
stroke:#FFFFFF; stroke-width:0; stroke-opacity:1; 
stroke-linecap:round; stroke-linejoin:round;">
<circle cx="60094.5" cy="26692.9" r="68.8976" /> 
</g>
<g style="fill:#FFFFFF; fill-opacity:1.0; 
stroke:#FFFFFF; stroke-width:39.3701; stroke-opacity:1; 
stroke-linecap:round; stroke-linejoin:round;">
</g>
<g style="fill:#FFFFFF; fill-opacity:1.0; 
stroke:#FFFFFF; stroke-width:0; stroke-opacity:1; 
stroke-linecap:round; stroke-linejoin:round;">
<circle cx="55511.8" cy="29901.6" r="68.8976" /> 
</g>
<g style="fill:#FFFFFF; fill-opacity:1.0; 
stroke:#FFFFFF; stroke-width:39.3701; stroke-opacity:1; 
stroke-linecap:round; stroke-linejoin:round;">
</g>
<g style="fill:#FFFFFF; fill-opacity:1.0; 
stroke:#FFFFFF; stroke-width:0; stroke-opacity:1; 
stroke-linecap:round; stroke-linejoin:round;">
<circle cx="56299.2" cy="31181.1" r="68.8976" /> 
</g>
<g style="fill:#FFFFFF; fill-opacity:1.0; 
stroke:#FFFFFF; stroke-width:39.3701; stroke-opacity:1; 
stroke-linecap:round; stroke-linejoin:round;">
</g>
<g style="fill:#FFFFFF; fill-opacity:1.0; 
stroke:#FFFFFF; stroke-width:0; stroke-opacity:1; 
stroke-linecap:round; stroke-linejoin:round;">
<circle cx="56299.2" cy="30393.7" r="68.8976" /> 
</g>
<g style="fill:#FFFFFF; fill-opacity:1.0; 
stroke:#FFFFFF; stroke-width:39.3701; stroke-opacity:1; 
stroke-linecap:round; stroke-linejoin:round;">
</g>
<g style="fill:#FFFFFF; fill-opacity:1.0; 
stroke:#FFFFFF; stroke-width:0; stroke-opacity:1; 
stroke-linecap:round; stroke-linejoin:round;">
<circle cx="56299.2" cy="31968.5" r="68.8976" /> 
</g>
<g style="fill:#FFFFFF; fill-opacity:1.0; 
stroke:#FFFFFF; stroke-width:39.3701; stroke-opacity:1; 
stroke-linecap:round; stroke-linejoin:round;">
</g>
<g style="fill:#FFFFFF; fill-opacity:1.0; 
stroke:#FFFFFF; stroke-width:0; stroke-opacity:1; 
stroke-linecap:round; stroke-linejoin:round;">
<circle cx="56299.2" cy="29606.3" r="68.8976" /> 
</g>
<g style="fill:#FFFFFF; fill-opacity:1.0; 
stroke:#FFFFFF; stroke-width:39.3701; stroke-opacity:1; 
stroke-linecap:round; stroke-linejoin:round;">
</g>
<g style="fill:#FFFFFF; fill-opacity:1.0; 
stroke:#FFFFFF; stroke-width:0; stroke-opacity:1; 
stroke-linecap:round; stroke-linejoin:round;">
<circle cx="55511.8" cy="33149.6" r="68.8976" /> 
</g>
<g style="fill:#FFFFFF; fill-opacity:1.0; 
stroke:#FFFFFF; stroke-width:39.3701; stroke-opacity:1; 
stroke-linecap:round; stroke-linejoin:round;">
</g>
<g style="fill:#FFFFFF; fill-opacity:1.0; 
stroke:#FFFFFF; stroke-width:0; stroke-opacity:1; 
stroke-linecap:round; stroke-linejoin:round;">
<circle cx="55511.8" cy="28425.2" r="68.8976" /> 
</g>
<g style="fill:#FFFFFF; fill-opacity:1.0; 
stroke:#FFFFFF; stroke-width:39.3701; stroke-opacity:1; 
stroke-linecap:round; stroke-linejoin:round;">
</g>
<g style="fill:#FFFFFF; fill-opacity:1.0; 
stroke:#FFFFFF; stroke-width:0; stroke-opacity:1; 
stroke-linecap:round; stroke-linejoin:round;">
<circle cx="55511.8" cy="31673.2" r="68.8976" /> 
</g>
<g style="fill:#FFFFFF; fill-opacity:1.0; 
stroke:#FFFFFF; stroke-width:39.3701; stroke-opacity:1; 
stroke-linecap:round; stroke-linejoin:round;">
</g>
<g style="fill:#000000; fill-opacity:1.0; 
stroke:#000000; stroke-width:39.3701; stroke-opacity:1; 
stroke-linecap:round; stroke-linejoin:round;">
</g> 
</svg>
