<?xml version="1.0" standalone="no"?>
 <!DOCTYPE svg PUBLIC "-//W3C//DTD SVG 1.1//EN" 
 "http://www.w3.org/Graphics/SVG/1.1/DTD/svg11.dtd"> 
<svg xmlns="http://www.w3.org/2000/svg" version="1.1" 
    width="29.7002cm" height="21.0007cm" viewBox="0 0 116930 82680 ">
<title>SVG Picture created as stlink-F.Cu.svg date 2017/09/06 10:17:16 </title>
  <desc>Picture generated by PCBNEW </desc>
<g style="fill:#000000; fill-opacity:1;stroke:#000000; stroke-opacity:1;
stroke-linecap:round; stroke-linejoin:round; "
 transform="translate(0 0) scale(1 1)">
</g>
<g style="fill:#000000; fill-opacity:0.0; 
stroke:#000000; stroke-width:-0.000393701; stroke-opacity:1; 
stroke-linecap:round; stroke-linejoin:round;">
</g>
<g style="fill:#000000; fill-opacity:0.0; 
stroke:#000000; stroke-width:0; stroke-opacity:1; 
stroke-linecap:round; stroke-linejoin:round;">
</g>
<g style="fill:#000000; fill-opacity:1.0; 
stroke:#000000; stroke-width:0; stroke-opacity:1; 
stroke-linecap:round; stroke-linejoin:round;">
<polyline style="fill-rule:evenodd;"
points="64863,32604
64794,32674
64432,32312
64502,32243
64863,32604
" /> 
<polyline style="fill-rule:evenodd;"
points="65003,32465
64933,32535
64571,32173
64641,32103
65003,32465
" /> 
<polyline style="fill-rule:evenodd;"
points="65142,32326
65072,32396
64710,32034
64780,31964
65142,32326
" /> 
<polyline style="fill-rule:evenodd;"
points="65281,32187
65211,32257
64850,31895
64919,31825
65281,32187
" /> 
<polyline style="fill-rule:evenodd;"
points="65420,32048
65351,32117
64989,31755
65058,31686
65420,32048
" /> 
<polyline style="fill-rule:evenodd;"
points="65559,31909
65490,31978
65128,31616
65197,31547
65559,31909
" /> 
<polyline style="fill-rule:evenodd;"
points="65699,31769
65629,31839
65267,31477
65337,31407
65699,31769
" /> 
<polyline style="fill-rule:evenodd;"
points="65838,31630
65768,31700
65406,31338
65476,31268
65838,31630
" /> 
<polyline style="fill-rule:evenodd;"
points="65977,31491
65907,31561
65545,31199
65615,31129
65977,31491
" /> 
<polyline style="fill-rule:evenodd;"
points="66116,31352
66047,31421
65685,31059
65754,30990
66116,31352
" /> 
<polyline style="fill-rule:evenodd;"
points="66255,31213
66186,31282
65824,30920
65893,30851
66255,31213
" /> 
<polyline style="fill-rule:evenodd;"
points="66395,31073
66325,31143
65963,30781
66033,30711
66395,31073
" /> 
<polyline style="fill-rule:evenodd;"
points="66325,29821
66395,29890
66033,30252
65963,30183
66325,29821
" /> 
<polyline style="fill-rule:evenodd;"
points="66186,29681
66255,29751
65893,30113
65824,30043
66186,29681
" /> 
<polyline style="fill-rule:evenodd;"
points="66047,29542
66116,29612
65754,29974
65685,29904
66047,29542
" /> 
<polyline style="fill-rule:evenodd;"
points="65907,29403
65977,29473
65615,29835
65545,29765
65907,29403
" /> 
<polyline style="fill-rule:evenodd;"
points="65768,29264
65838,29333
65476,29695
65406,29626
65768,29264
" /> 
<polyline style="fill-rule:evenodd;"
points="65629,29125
65699,29194
65337,29556
65267,29487
65629,29125
" /> 
<polyline style="fill-rule:evenodd;"
points="65490,28985
65559,29055
65197,29417
65128,29347
65490,28985
" /> 
<polyline style="fill-rule:evenodd;"
points="65351,28846
65420,28916
65058,29278
64989,29208
65351,28846
" /> 
<polyline style="fill-rule:evenodd;"
points="65211,28707
65281,28777
64919,29139
64850,29069
65211,28707
" /> 
<polyline style="fill-rule:evenodd;"
points="65072,28568
65142,28637
64780,28999
64710,28930
65072,28568
" /> 
<polyline style="fill-rule:evenodd;"
points="64933,28429
65003,28498
64641,28860
64571,28791
64933,28429
" /> 
<polyline style="fill-rule:evenodd;"
points="64794,28289
64863,28359
64502,28721
64432,28651
64794,28289
" /> 
<polyline style="fill-rule:evenodd;"
points="63973,28651
63903,28721
63541,28359
63611,28289
63973,28651
" /> 
<polyline style="fill-rule:evenodd;"
points="63833,28791
63764,28860
63402,28498
63471,28429
63833,28791
" /> 
<polyline style="fill-rule:evenodd;"
points="63694,28930
63625,28999
63263,28637
63332,28568
63694,28930
" /> 
<polyline style="fill-rule:evenodd;"
points="63555,29069
63485,29139
63124,28777
63193,28707
63555,29069
" /> 
<polyline style="fill-rule:evenodd;"
points="63416,29208
63346,29278
62984,28916
63054,28846
63416,29208
" /> 
<polyline style="fill-rule:evenodd;"
points="63277,29347
63207,29417
62845,29055
62915,28985
63277,29347
" /> 
<polyline style="fill-rule:evenodd;"
points="63137,29487
63068,29556
62706,29194
62776,29125
63137,29487
" /> 
<polyline style="fill-rule:evenodd;"
points="62998,29626
62929,29695
62567,29333
62636,29264
62998,29626
" /> 
<polyline style="fill-rule:evenodd;"
points="62859,29765
62789,29835
62428,29473
62497,29403
62859,29765
" /> 
<polyline style="fill-rule:evenodd;"
points="62720,29904
62650,29974
62288,29612
62358,29542
62720,29904
" /> 
<polyline style="fill-rule:evenodd;"
points="62581,30043
62511,30113
62149,29751
62219,29681
62581,30043
" /> 
<polyline style="fill-rule:evenodd;"
points="62441,30183
62372,30252
62010,29890
62080,29821
62441,30183
" /> 
<polyline style="fill-rule:evenodd;"
points="62372,30711
62441,30781
62080,31143
62010,31073
62372,30711
" /> 
<polyline style="fill-rule:evenodd;"
points="62511,30851
62581,30920
62219,31282
62149,31213
62511,30851
" /> 
<polyline style="fill-rule:evenodd;"
points="62650,30990
62720,31059
62358,31421
62288,31352
62650,30990
" /> 
<polyline style="fill-rule:evenodd;"
points="62789,31129
62859,31199
62497,31561
62428,31491
62789,31129
" /> 
<polyline style="fill-rule:evenodd;"
points="62929,31268
62998,31338
62636,31700
62567,31630
62929,31268
" /> 
<polyline style="fill-rule:evenodd;"
points="63068,31407
63137,31477
62776,31839
62706,31769
63068,31407
" /> 
<polyline style="fill-rule:evenodd;"
points="63207,31547
63277,31616
62915,31978
62845,31909
63207,31547
" /> 
<polyline style="fill-rule:evenodd;"
points="63346,31686
63416,31755
63054,32117
62984,32048
63346,31686
" /> 
<polyline style="fill-rule:evenodd;"
points="63485,31825
63555,31895
63193,32257
63124,32187
63485,31825
" /> 
<polyline style="fill-rule:evenodd;"
points="63625,31964
63694,32034
63332,32396
63263,32326
63625,31964
" /> 
<polyline style="fill-rule:evenodd;"
points="63764,32103
63833,32173
63471,32535
63402,32465
63764,32103
" /> 
<polyline style="fill-rule:evenodd;"
points="63903,32243
63973,32312
63611,32674
63541,32604
63903,32243
" /> 
<polyline style="fill-rule:evenodd;"
points="65984,34427
65984,34131
66456,34131
66456,34427
65984,34427
" /> 
<polyline style="fill-rule:evenodd;"
points="66732,34427
66732,34131
67204,34131
67204,34427
66732,34427
" /> 
<polyline style="fill-rule:evenodd;"
points="68811,34131
68811,34427
68338,34427
68338,34131
68811,34131
" /> 
<polyline style="fill-rule:evenodd;"
points="68062,34131
68062,34427
67590,34427
67590,34131
68062,34131
" /> 
<polyline style="fill-rule:evenodd;"
points="69525,33842
69230,33842
69230,33370
69525,33370
69525,33842
" /> 
<polyline style="fill-rule:evenodd;"
points="69525,33094
69230,33094
69230,32622
69525,32622
69525,33094
" /> 
<polyline style="fill-rule:evenodd;"
points="63050,32983
63259,32775
63593,33109
63384,33317
63050,32983
" /> 
<polyline style="fill-rule:evenodd;"
points="63579,33512
63788,33304
64122,33638
63913,33846
63579,33512
" /> 
<polyline style="fill-rule:evenodd;"
points="65347,27910
65052,27910
65052,27437
65347,27437
65347,27910
" /> 
<polyline style="fill-rule:evenodd;"
points="65347,27162
65052,27162
65052,26689
65347,26689
65347,27162
" /> 
<polyline style="fill-rule:evenodd;"
points="64927,33161
65222,33161
65222,33633
64927,33633
64927,33161
" /> 
<polyline style="fill-rule:evenodd;"
points="64927,33909
65222,33909
65222,34381
64927,34381
64927,33909
" /> 
<polyline style="fill-rule:evenodd;"
points="67078,32457
66869,32248
67203,31914
67412,32123
67078,32457
" /> 
<polyline style="fill-rule:evenodd;"
points="67607,31928
67398,31719
67732,31385
67941,31594
67607,31928
" /> 
<polyline style="fill-rule:evenodd;"
points="60962,30289
60753,30081
61087,29746
61296,29955
60962,30289
" /> 
<polyline style="fill-rule:evenodd;"
points="61491,29760
61282,29552
61616,29218
61825,29426
61491,29760
" /> 
<polyline style="fill-rule:evenodd;"
points="62592,34047
62842,34297
62508,34631
62258,34381
62592,34047
" /> 
<polyline style="fill-rule:evenodd;"
points="61979,34659
62230,34910
61896,35244
61645,34993
61979,34659
" /> 
<polyline style="fill-rule:evenodd;"
points="70192,33035
69838,33035
69838,32562
70192,32562
70192,33035
" /> 
<polyline style="fill-rule:evenodd;"
points="70192,32169
69838,32169
69838,31696
70192,31696
70192,32169
" /> 
<polyline style="fill-rule:evenodd;"
points="61737,31444
61988,31695
61654,32029
61403,31778
61737,31444
" /> 
<polyline style="fill-rule:evenodd;"
points="61125,32057
61375,32307
61041,32641
60791,32391
61125,32057
" /> 
<polyline style="fill-rule:evenodd;"
points="61084,33146
61335,32895
61669,33229
61418,33480
61084,33146
" /> 
<polyline style="fill-rule:evenodd;"
points="61696,33758
61947,33508
62281,33842
62031,34092
61696,33758
" /> 
<polyline style="fill-rule:evenodd;"
points="59732,32047
59732,32401
59259,32401
59259,32047
59732,32047
" /> 
<polyline style="fill-rule:evenodd;"
points="58866,32047
58866,32401
58393,32401
58393,32047
58866,32047
" /> 
<polyline style="fill-rule:evenodd;"
points="67362,26515
67362,26870
66889,26870
66889,26515
67362,26515
" /> 
<polyline style="fill-rule:evenodd;"
points="66496,26515
66496,26870
66023,26870
66023,26515
66496,26515
" /> 
<polyline style="fill-rule:evenodd;"
points="59618,29996
59618,30350
59145,30350
59145,29996
59618,29996
" /> 
<polyline style="fill-rule:evenodd;"
points="58751,29996
58751,30350
58279,30350
58279,29996
58751,29996
" /> 
<polyline style="fill-rule:evenodd;"
points="59665,28633
59665,28988
59192,28988
59192,28633
59665,28633
" /> 
<polyline style="fill-rule:evenodd;"
points="58799,28633
58799,28988
58326,28988
58326,28633
58799,28633
" /> 
<polyline style="fill-rule:evenodd;"
points="57500,28149
57854,28149
57854,28622
57500,28622
57500,28149
" /> 
<polyline style="fill-rule:evenodd;"
points="57500,29015
57854,29015
57854,29488
57500,29488
57500,29015
" /> 
<polyline style="fill-rule:evenodd;"
points="68147,29866
68397,30116
68063,30450
67813,30200
68147,29866
" /> 
<polyline style="fill-rule:evenodd;"
points="67534,30478
67785,30729
67451,31063
67200,30812
67534,30478
" /> 
<polyline style="fill-rule:evenodd;"
points="69618,31218
69367,31468
69033,31134
69284,30883
69618,31218
" /> 
<polyline style="fill-rule:evenodd;"
points="69005,30605
68755,30856
68421,30522
68671,30271
69005,30605
" /> 
<polyline style="fill-rule:evenodd;"
points="58011,33346
57657,33346
57657,32874
58011,32874
58011,33346
" /> 
<polyline style="fill-rule:evenodd;"
points="58011,32480
57657,32480
57657,32007
58011,32007
58011,32480
" /> 
<polyline style="fill-rule:evenodd;"
points="59803,34350
59803,33996
60275,33996
60275,34350
59803,34350
" /> 
<polyline style="fill-rule:evenodd;"
points="60669,34350
60669,33996
61141,33996
61141,34350
60669,34350
" /> 
<polyline style="fill-rule:evenodd;"
points="69370,28641
69370,28996
68897,28996
68897,28641
69370,28641
" /> 
<polyline style="fill-rule:evenodd;"
points="68503,28641
68503,28996
68031,28996
68031,28641
68503,28641
" /> 
<polyline style="fill-rule:evenodd;"
points="69370,28051
69370,28405
68897,28405
68897,28051
69370,28051
" /> 
<polyline style="fill-rule:evenodd;"
points="68503,28051
68503,28405
68031,28405
68031,28051
68503,28051
" /> 
<polyline style="fill-rule:evenodd;"
points="69370,26870
69370,27224
68897,27224
68897,26870
69370,26870
" /> 
<polyline style="fill-rule:evenodd;"
points="68503,26870
68503,27224
68031,27224
68031,26870
68503,26870
" /> 
<polyline style="fill-rule:evenodd;"
points="70736,26708
70736,26354
71208,26354
71208,26708
70736,26708
" /> 
<polyline style="fill-rule:evenodd;"
points="71602,26708
71602,26354
72074,26354
72074,26708
71602,26708
" /> 
<polyline style="fill-rule:evenodd;"
points="68031,26633
68031,26279
68503,26279
68503,26633
68031,26633
" /> 
<polyline style="fill-rule:evenodd;"
points="68897,26633
68897,26279
69370,26279
69370,26633
68897,26633
" /> 
<polyline style="fill-rule:evenodd;"
points="60078,27578
60078,27933
59606,27933
59606,27578
60078,27578
" /> 
<polyline style="fill-rule:evenodd;"
points="59212,27578
59212,27933
58740,27933
58740,27578
59212,27578
" /> 
<polyline style="fill-rule:evenodd;"
points="68031,27814
68031,27460
68503,27460
68503,27814
68031,27814
" /> 
<polyline style="fill-rule:evenodd;"
points="68897,27814
68897,27460
69370,27460
69370,27814
68897,27814
" /> 
<circle cx="68145.7" cy="33413.4" r="295.276" /> 
</g>
<g style="fill:#000000; fill-opacity:1.0; 
stroke:#000000; stroke-width:39.3701; stroke-opacity:1; 
stroke-linecap:round; stroke-linejoin:round;">
</g>
<g style="fill:#000000; fill-opacity:1.0; 
stroke:#000000; stroke-width:0; stroke-opacity:1; 
stroke-linecap:round; stroke-linejoin:round;">
<circle cx="66224.4" cy="33413.4" r="295.276" /> 
</g>
<g style="fill:#000000; fill-opacity:1.0; 
stroke:#000000; stroke-width:39.3701; stroke-opacity:1; 
stroke-linecap:round; stroke-linejoin:round;">
</g>
<g style="fill:#000000; fill-opacity:1.0; 
stroke:#000000; stroke-width:0; stroke-opacity:1; 
stroke-linecap:round; stroke-linejoin:round;">
<circle cx="59574.8" cy="33137.8" r="393.701" /> 
</g>
<g style="fill:#000000; fill-opacity:1.0; 
stroke:#000000; stroke-width:39.3701; stroke-opacity:1; 
stroke-linecap:round; stroke-linejoin:round;">
</g>
<g style="fill:#000000; fill-opacity:1.0; 
stroke:#000000; stroke-width:0; stroke-opacity:1; 
stroke-linecap:round; stroke-linejoin:round;">
<polyline style="fill-rule:evenodd;"
points="59606,29685
58818,29685
58818,29291
59606,29291
59606,29685
" /> 
<polyline style="fill-rule:evenodd;"
points="59700,31074
60488,31074
60488,31468
59700,31468
59700,31074
" /> 
<polyline style="fill-rule:evenodd;"
points="63405,27381
63405,27736
62933,27736
62933,27381
63405,27381
" /> 
<polyline style="fill-rule:evenodd;"
points="62539,27381
62539,27736
62066,27736
62066,27381
62539,27381
" /> 
<polyline style="fill-rule:evenodd;"
points="61358,27362
61003,27362
61003,26889
61358,26889
61358,27362
" /> 
<polyline style="fill-rule:evenodd;"
points="61358,26496
61003,26496
61003,26023
61358,26023
61358,26496
" /> 
<polyline style="fill-rule:evenodd;"
points="71799,29216
71799,28547
72468,28547
72468,29216
71799,29216
" /> 
</g>
<g style="fill:#000000; fill-opacity:1.0; 
stroke:#000000; stroke-width:669.291; stroke-opacity:1; 
stroke-linecap:round; stroke-linejoin:round;">
</g>
<g style="fill:#000000; fill-opacity:0.0; 
stroke:#000000; stroke-width:669.291; stroke-opacity:1; 
stroke-linecap:round; stroke-linejoin:round;">
<path d="M73133 28881
L73133 28881
" />
<path d="M72133 29881
L72133 29881
" />
<path d="M73133 29881
L73133 29881
" />
<path d="M72133 30881
L72133 30881
" />
<path d="M73133 30881
L73133 30881
" />
<path d="M72133 31881
L72133 31881
" />
<path d="M73133 31881
L73133 31881
" />
<path d="M72133 32881
L72133 32881
" />
<path d="M73133 32881
L73133 32881
" />
</g>
<g style="fill:#000000; fill-opacity:0.0; 
stroke:#000000; stroke-width:0; stroke-opacity:1; 
stroke-linecap:round; stroke-linejoin:round;">
</g>
<g style="fill:#000000; fill-opacity:1.0; 
stroke:#000000; stroke-width:0; stroke-opacity:1; 
stroke-linecap:round; stroke-linejoin:round;">
<polyline style="fill-rule:evenodd;"
points="60165,34877
60834,34877
60834,35547
60165,35547
60165,34877
" /> 
</g>
<g style="fill:#000000; fill-opacity:1.0; 
stroke:#000000; stroke-width:669.291; stroke-opacity:1; 
stroke-linecap:round; stroke-linejoin:round;">
</g>
<g style="fill:#000000; fill-opacity:0.0; 
stroke:#000000; stroke-width:669.291; stroke-opacity:1; 
stroke-linecap:round; stroke-linejoin:round;">
<path d="M59500 35212
L59500 35212
" />
<path d="M58500 35212
L58500 35212
" />
<path d="M57500 35212
L57500 35212
" />
<path d="M56500 35212
L56500 35212
" />
</g>
<g style="fill:#000000; fill-opacity:0.0; 
stroke:#000000; stroke-width:0; stroke-opacity:1; 
stroke-linecap:round; stroke-linejoin:round;">
</g>
<g style="fill:#000000; fill-opacity:1.0; 
stroke:#000000; stroke-width:0; stroke-opacity:1; 
stroke-linecap:round; stroke-linejoin:round;">
<polyline style="fill-rule:evenodd;"
points="59429,27027
58759,27027
58759,26358
59429,26358
59429,27027
" /> 
</g>
<g style="fill:#000000; fill-opacity:1.0; 
stroke:#000000; stroke-width:669.291; stroke-opacity:1; 
stroke-linecap:round; stroke-linejoin:round;">
</g>
<g style="fill:#000000; fill-opacity:0.0; 
stroke:#000000; stroke-width:669.291; stroke-opacity:1; 
stroke-linecap:round; stroke-linejoin:round;">
<path d="M60094 26692
L60094 26692
" />
</g>
<g style="fill:#000000; fill-opacity:0.0; 
stroke:#000000; stroke-width:0; stroke-opacity:1; 
stroke-linecap:round; stroke-linejoin:round;">
</g>
<g style="fill:#000000; fill-opacity:1.0; 
stroke:#000000; stroke-width:0; stroke-opacity:1; 
stroke-linecap:round; stroke-linejoin:round;">
<polyline style="fill-rule:evenodd;"
points="70016,30748
69807,30957
69473,30623
69682,30414
70016,30748
" /> 
<polyline style="fill-rule:evenodd;"
points="69487,30219
69278,30428
68944,30094
69153,29885
69487,30219
" /> 
<circle cx="55511.8" cy="29901.6" r="295.276" /> 
</g>
<g style="fill:#000000; fill-opacity:1.0; 
stroke:#000000; stroke-width:39.3701; stroke-opacity:1; 
stroke-linecap:round; stroke-linejoin:round;">
</g>
<g style="fill:#000000; fill-opacity:1.0; 
stroke:#000000; stroke-width:0; stroke-opacity:1; 
stroke-linecap:round; stroke-linejoin:round;">
<circle cx="56299.2" cy="31181.1" r="314.961" /> 
</g>
<g style="fill:#000000; fill-opacity:1.0; 
stroke:#000000; stroke-width:39.3701; stroke-opacity:1; 
stroke-linecap:round; stroke-linejoin:round;">
</g>
<g style="fill:#000000; fill-opacity:1.0; 
stroke:#000000; stroke-width:0; stroke-opacity:1; 
stroke-linecap:round; stroke-linejoin:round;">
<circle cx="56299.2" cy="30393.7" r="314.961" /> 
</g>
<g style="fill:#000000; fill-opacity:1.0; 
stroke:#000000; stroke-width:39.3701; stroke-opacity:1; 
stroke-linecap:round; stroke-linejoin:round;">
</g>
<g style="fill:#000000; fill-opacity:1.0; 
stroke:#000000; stroke-width:0; stroke-opacity:1; 
stroke-linecap:round; stroke-linejoin:round;">
<circle cx="56299.2" cy="31968.5" r="314.961" /> 
</g>
<g style="fill:#000000; fill-opacity:1.0; 
stroke:#000000; stroke-width:39.3701; stroke-opacity:1; 
stroke-linecap:round; stroke-linejoin:round;">
</g>
<g style="fill:#000000; fill-opacity:1.0; 
stroke:#000000; stroke-width:0; stroke-opacity:1; 
stroke-linecap:round; stroke-linejoin:round;">
<circle cx="56299.2" cy="29606.3" r="314.961" /> 
</g>
<g style="fill:#000000; fill-opacity:1.0; 
stroke:#000000; stroke-width:39.3701; stroke-opacity:1; 
stroke-linecap:round; stroke-linejoin:round;">
</g>
<g style="fill:#000000; fill-opacity:1.0; 
stroke:#000000; stroke-width:0; stroke-opacity:1; 
stroke-linecap:round; stroke-linejoin:round;">
<circle cx="55511.8" cy="33149.6" r="590.551" /> 
</g>
<g style="fill:#000000; fill-opacity:1.0; 
stroke:#000000; stroke-width:39.3701; stroke-opacity:1; 
stroke-linecap:round; stroke-linejoin:round;">
</g>
<g style="fill:#000000; fill-opacity:1.0; 
stroke:#000000; stroke-width:0; stroke-opacity:1; 
stroke-linecap:round; stroke-linejoin:round;">
<circle cx="55511.8" cy="28425.2" r="590.551" /> 
</g>
<g style="fill:#000000; fill-opacity:1.0; 
stroke:#000000; stroke-width:39.3701; stroke-opacity:1; 
stroke-linecap:round; stroke-linejoin:round;">
</g>
<g style="fill:#000000; fill-opacity:1.0; 
stroke:#000000; stroke-width:0; stroke-opacity:1; 
stroke-linecap:round; stroke-linejoin:round;">
<circle cx="55511.8" cy="31673.2" r="295.276" /> 
</g>
<g style="fill:#000000; fill-opacity:1.0; 
stroke:#000000; stroke-width:39.3701; stroke-opacity:1; 
stroke-linecap:round; stroke-linejoin:round;">
</g>
<g style="fill:#000000; fill-opacity:1.0; 
stroke:#000000; stroke-width:0; stroke-opacity:1; 
stroke-linecap:round; stroke-linejoin:round;">
<circle cx="60157.5" cy="30167.3" r="354.331" /> 
</g>
<g style="fill:#000000; fill-opacity:1.0; 
stroke:#000000; stroke-width:39.3701; stroke-opacity:1; 
stroke-linecap:round; stroke-linejoin:round;">
</g>
<g style="fill:#000000; fill-opacity:1.0; 
stroke:#000000; stroke-width:0; stroke-opacity:1; 
stroke-linecap:round; stroke-linejoin:round;">
<circle cx="63224.4" cy="34925.2" r="354.331" /> 
</g>
<g style="fill:#000000; fill-opacity:1.0; 
stroke:#000000; stroke-width:39.3701; stroke-opacity:1; 
stroke-linecap:round; stroke-linejoin:round;">
</g>
<g style="fill:#000000; fill-opacity:1.0; 
stroke:#000000; stroke-width:0; stroke-opacity:1; 
stroke-linecap:round; stroke-linejoin:round;">
<circle cx="64511.8" cy="27307.1" r="354.331" /> 
</g>
<g style="fill:#000000; fill-opacity:1.0; 
stroke:#000000; stroke-width:39.3701; stroke-opacity:1; 
stroke-linecap:round; stroke-linejoin:round;">
</g>
<g style="fill:#000000; fill-opacity:1.0; 
stroke:#000000; stroke-width:0; stroke-opacity:1; 
stroke-linecap:round; stroke-linejoin:round;">
<circle cx="68689" cy="31815" r="354.331" /> 
</g>
<g style="fill:#000000; fill-opacity:1.0; 
stroke:#000000; stroke-width:39.3701; stroke-opacity:1; 
stroke-linecap:round; stroke-linejoin:round;">
</g>
<g style="fill:#000000; fill-opacity:1.0; 
stroke:#000000; stroke-width:0; stroke-opacity:1; 
stroke-linecap:round; stroke-linejoin:round;">
<circle cx="65905.5" cy="27559.1" r="354.331" /> 
</g>
<g style="fill:#000000; fill-opacity:1.0; 
stroke:#000000; stroke-width:39.3701; stroke-opacity:1; 
stroke-linecap:round; stroke-linejoin:round;">
</g>
<g style="fill:#000000; fill-opacity:1.0; 
stroke:#000000; stroke-width:0; stroke-opacity:1; 
stroke-linecap:round; stroke-linejoin:round;">
<circle cx="62657.5" cy="33413.4" r="354.331" /> 
</g>
<g style="fill:#000000; fill-opacity:1.0; 
stroke:#000000; stroke-width:39.3701; stroke-opacity:1; 
stroke-linecap:round; stroke-linejoin:round;">
</g>
<g style="fill:#000000; fill-opacity:1.0; 
stroke:#000000; stroke-width:0; stroke-opacity:1; 
stroke-linecap:round; stroke-linejoin:round;">
<circle cx="62165.4" cy="26456.7" r="354.331" /> 
</g>
<g style="fill:#000000; fill-opacity:1.0; 
stroke:#000000; stroke-width:39.3701; stroke-opacity:1; 
stroke-linecap:round; stroke-linejoin:round;">
</g>
<g style="fill:#000000; fill-opacity:1.0; 
stroke:#000000; stroke-width:0; stroke-opacity:1; 
stroke-linecap:round; stroke-linejoin:round;">
<circle cx="56496.1" cy="34055.1" r="354.331" /> 
</g>
<g style="fill:#000000; fill-opacity:1.0; 
stroke:#000000; stroke-width:39.3701; stroke-opacity:1; 
stroke-linecap:round; stroke-linejoin:round;">
</g>
<g style="fill:#000000; fill-opacity:1.0; 
stroke:#000000; stroke-width:157.48; stroke-opacity:1; 
stroke-linecap:round; stroke-linejoin:round;">
</g>
<g style="fill:#000000; fill-opacity:0.0; 
stroke:#000000; stroke-width:157.48; stroke-opacity:1; 
stroke-linecap:round; stroke-linejoin:round;">
<path d="M65200 27674
L64878 27674
" />
<path d="M64878 27674
L64511 27307
" />
<path d="M64878 27674
L64511 27307
" />
</g>
<g style="fill:#000000; fill-opacity:0.0; 
stroke:#000000; stroke-width:98.4252; stroke-opacity:1; 
stroke-linecap:round; stroke-linejoin:round;">
<path d="M64648 28505
L64648 28501
" />
<path d="M64648 28501
L65200 27949
" />
<path d="M65200 27949
L65200 27674
" />
</g>
<g style="fill:#000000; fill-opacity:0.0; 
stroke:#000000; stroke-width:157.48; stroke-opacity:1; 
stroke-linecap:round; stroke-linejoin:round;">
<path d="M64625 27467
L64511 27307
" />
</g>
<g style="fill:#000000; fill-opacity:0.0; 
stroke:#000000; stroke-width:98.4252; stroke-opacity:1; 
stroke-linecap:round; stroke-linejoin:round;">
<path d="M63224 34925
L63433 34925
" />
<path d="M63433 34925
L64960 33397
" />
<path d="M64960 33397
L65074 33397
" />
<path d="M64648 32458
L64648 32459
" />
<path d="M64648 32459
L65074 32885
" />
<path d="M65074 32885
L65074 33397
" />
<path d="M63224 34925
L63224 33144
" />
<path d="M63224 33144
L63322 33046
" />
<path d="M63757 32458
L63757 32459
" />
<path d="M63757 32459
L63322 32894
" />
<path d="M63322 32894
L63322 33046
" />
<path d="M67141 32185
L67141 31122
" />
<path d="M67141 31122
L67492 30770
" />
<path d="M65761 31345
L65762 31345
" />
<path d="M65762 31345
L66603 32185
" />
<path d="M66603 32185
L67141 32185
" />
</g>
<g style="fill:#000000; fill-opacity:0.0; 
stroke:#000000; stroke-width:157.48; stroke-opacity:1; 
stroke-linecap:round; stroke-linejoin:round;">
<path d="M67141 32185
L68318 32185
" />
<path d="M68318 32185
L68688 31814
" />
<path d="M68688 31814
L69897 31814
" />
</g>
<g style="fill:#000000; fill-opacity:0.0; 
stroke:#000000; stroke-width:98.4252; stroke-opacity:1; 
stroke-linecap:round; stroke-linejoin:round;">
<path d="M69897 31814
L70015 31933
" />
</g>
<g style="fill:#000000; fill-opacity:0.0; 
stroke:#000000; stroke-width:157.48; stroke-opacity:1; 
stroke-linecap:round; stroke-linejoin:round;">
<path d="M70015 31933
L72082 31933
" />
</g>
<g style="fill:#000000; fill-opacity:0.0; 
stroke:#000000; stroke-width:98.4252; stroke-opacity:1; 
stroke-linecap:round; stroke-linejoin:round;">
<path d="M72082 31933
L72133 31881
" />
<path d="M61937 34951
L61937 34975
" />
<path d="M61937 34975
L61700 35212
" />
<path d="M61700 35212
L60500 35212
" />
<path d="M61024 30018
L61061 30018
" />
<path d="M61061 30018
L61311 30267
" />
<path d="M61995 30267
L62226 30036
" />
<path d="M61311 30267
L61995 30267
" />
<path d="M62204 35022
L62008 35022
" />
<path d="M62008 35022
L61937 34951
" />
<path d="M63757 32458
L63757 32509
" />
<path d="M62176 35022
L62204 35022
" />
<path d="M62204 35022
L63126 35022
" />
<path d="M63126 35022
L63224 34925
" />
<path d="M60157 30167
L60875 30167
" />
<path d="M60875 30167
L61024 30018
" />
<path d="M59381 30173
L60929 30173
" />
<path d="M60929 30173
L61024 30018
" />
<path d="M67508 30703
L67508 30729
" />
</g>
<g style="fill:#000000; fill-opacity:0.0; 
stroke:#000000; stroke-width:157.48; stroke-opacity:1; 
stroke-linecap:round; stroke-linejoin:round;">
<path d="M64648 27490
L64625 27467
" />
</g>
<g style="fill:#000000; fill-opacity:0.0; 
stroke:#000000; stroke-width:98.4252; stroke-opacity:1; 
stroke-linecap:round; stroke-linejoin:round;">
<path d="M65761 31345
L65761 31352
" />
<path d="M66224 33413
L66224 34275
" />
<path d="M66224 34275
L66220 34279
" />
<path d="M65204 31902
L65209 31902
" />
<path d="M65209 31902
L66224 32917
" />
<path d="M66224 32917
L66224 33413
" />
<path d="M65204 31902
L65205 31902
" />
<path d="M65204 31902
L65204 31905
" />
<path d="M68145 33413
L68145 33425
" />
<path d="M68145 33425
L68574 33854
" />
<path d="M68574 33854
L68574 34279
" />
<path d="M65344 31762
L65345 31762
" />
<path d="M65345 31762
L66555 32972
" />
<path d="M67704 32972
L68145 33413
" />
<path d="M66555 32972
L67704 32972
" />
<path d="M65344 31762
L65344 31765
" />
<path d="M65344 31762
L65357 31762
" />
<path d="M65954 32096
L65954 32100
" />
<path d="M66598 32744
L69263 32744
" />
<path d="M65954 32100
L66598 32744
" />
<path d="M69263 32744
L69377 32858
" />
<path d="M70015 32799
L69437 32799
" />
<path d="M69437 32799
L69377 32858
" />
<path d="M65483 31623
L65483 31625
" />
<path d="M65483 31625
L65954 32096
" />
</g>
<g style="fill:#000000; fill-opacity:0.0; 
stroke:#000000; stroke-width:157.48; stroke-opacity:1; 
stroke-linecap:round; stroke-linejoin:round;">
<path d="M65590 26692
L63937 26692
" />
<path d="M64173 28188
L64173 29259
" />
<path d="M63779 27795
L64173 28188
" />
<path d="M63779 26850
L63779 27795
" />
<path d="M63937 26692
L63779 26850
" />
<path d="M66259 26692
L65590 26692
" />
<path d="M65590 26692
L65433 26692
" />
<path d="M65433 26692
L65200 26925
" />
<path d="M55511 33149
L55511 32755
" />
<path d="M55511 32755
L56299 31968
" />
<path d="M56299 31968
L56299 32952
" />
<path d="M56299 32952
L56102 33149
" />
<path d="M56102 33149
L55511 33149
" />
</g>
<g style="fill:#000000; fill-opacity:0.0; 
stroke:#000000; stroke-width:98.4252; stroke-opacity:1; 
stroke-linecap:round; stroke-linejoin:round;">
<path d="M61553 29489
L61359 29489
" />
<path d="M61729 29489
L61553 29489
" />
<path d="M62365 29894
L61959 29489
" />
<path d="M61959 29489
L61553 29489
" />
<path d="M58259 35885
L58791 35885
" />
<path d="M59003 34515
L58960 34472
" />
<path d="M59003 35673
L59003 34515
" />
<path d="M58791 35885
L59003 35673
" />
<path d="M58007 35885
L58007 34472
" />
<path d="M58007 34472
L58000 34464
" />
<path d="M58500 35212
L58500 35799
" />
<path d="M58413 35885
L58259 35885
" />
<path d="M58259 35885
L58007 35885
" />
<path d="M58500 35799
L58413 35885
" />
</g>
<g style="fill:#000000; fill-opacity:0.0; 
stroke:#000000; stroke-width:118.11; stroke-opacity:1; 
stroke-linecap:round; stroke-linejoin:round;">
<path d="M66023 26692
L66259 26692
" />
</g>
<g style="fill:#000000; fill-opacity:0.0; 
stroke:#000000; stroke-width:98.4252; stroke-opacity:1; 
stroke-linecap:round; stroke-linejoin:round;">
<path d="M63851 33575
L63851 33479
" />
<path d="M63851 33479
L64177 33153
" />
<path d="M64177 33153
L64177 31755
" />
<path d="M64177 31755
L64153 31779
" />
<path d="M63776 33662
L63843 33595
" />
<path d="M64681 31251
L64740 31251
" />
<path d="M69901 30528
L69744 30685
" />
<path d="M69901 30039
L69901 30528
" />
<path d="M69393 29531
L69901 30039
" />
<path d="M67539 29531
L69393 29531
" />
<path d="M66598 30472
L67539 29531
" />
<path d="M65519 30472
L66598 30472
" />
<path d="M64740 31251
L65519 30472
" />
<path d="M67669 31656
L67673 31656
" />
<path d="M67673 31656
L68154 31176
" />
<path d="M68154 31176
L69325 31176
" />
<path d="M66968 34279
L67826 34279
" />
<path d="M71488 31385
L70444 31385
" />
</g>
<g style="fill:#000000; fill-opacity:0.0; 
stroke:#000000; stroke-width:118.11; stroke-opacity:1; 
stroke-linecap:round; stroke-linejoin:round;">
<path d="M71488 31385
L72637 31385
" />
</g>
<g style="fill:#000000; fill-opacity:0.0; 
stroke:#000000; stroke-width:157.48; stroke-opacity:1; 
stroke-linecap:round; stroke-linejoin:round;">
<path d="M72637 31385
L73133 31881
" />
</g>
<g style="fill:#000000; fill-opacity:0.0; 
stroke:#000000; stroke-width:98.4252; stroke-opacity:1; 
stroke-linecap:round; stroke-linejoin:round;">
<path d="M70444 31385
L69744 30685
" />
<path d="M58622 34405
L58622 35090
" />
<path d="M58622 35090
L58500 35212
" />
<path d="M73133 31881
L73133 32881
" />
<path d="M69325 31176
L69325 31104
" />
<path d="M69325 31104
L69744 30685
" />
<path d="M58629 32224
L58622 32688
" />
<path d="M58622 32688
L58622 34405
" />
<path d="M58622 34405
L58622 34448
" />
<path d="M62365 29897
L62365 29894
" />
<path d="M62365 29897
L62365 29912
" />
<path d="M62365 29912
L62775 30322
" />
<path d="M62775 30322
L63109 30322
" />
<path d="M63109 30322
L64173 29259
" />
<path d="M64173 29259
L64166 29265
" />
<path d="M64373 29058
L64787 28644
" />
<path d="M64166 29265
L64373 29058
" />
<path d="M63618 32319
L63618 32314
" />
<path d="M63618 32314
L64153 31779
" />
<path d="M64153 31779
L64681 31251
" />
<path d="M64681 31251
L64720 31212
" />
<path d="M65350 31212
L65622 31484
" />
<path d="M64720 31212
L65350 31212
" />
<path d="M64787 28644
L64787 28641
" />
<path d="M62365 29897
L62365 29889
" />
<path d="M63618 32319
L63618 32322
" />
<path d="M65622 31484
L65622 31488
" />
<path d="M65761 29619
L65766 29619
" />
<path d="M65766 29619
L66566 28818
" />
<path d="M66566 28818
L68267 28818
" />
<path d="M65761 29619
L65774 29619
" />
<path d="M65761 29619
L65761 29612
" />
<path d="M65622 29480
L65622 29479
" />
<path d="M65622 29479
L66874 28228
" />
<path d="M66874 28228
L68267 28228
" />
<path d="M65622 29480
L65622 29471
" />
<path d="M65622 29480
L65622 29475
" />
<path d="M65622 29480
L65622 29475
" />
<path d="M65483 29340
L65483 29335
" />
<path d="M65483 29335
L67181 27637
" />
<path d="M67181 27637
L68267 27637
" />
<path d="M65483 29340
L65483 29334
" />
<path d="M65483 29340
L65483 29339
" />
<path d="M65344 29201
L65357 29201
" />
<path d="M65357 29201
L67511 27047
" />
<path d="M67511 27047
L68267 27047
" />
<path d="M65344 29201
L65349 29201
" />
<path d="M65344 29201
L65365 29201
" />
<path d="M65344 29201
L65345 29201
" />
<path d="M65204 29062
L65204 29047
" />
<path d="M65204 29047
L67125 27125
" />
<path d="M67125 27125
L67125 26692
" />
<path d="M65204 29062
L65205 29062
" />
<path d="M65065 28923
L65053 28923
" />
<path d="M65053 28923
L63661 30314
" />
<path d="M63661 30314
L63661 31417
" />
<path d="M63478 32180
L63478 32180
" />
<path d="M63478 32180
L63838 31820
" />
<path d="M63406 31417
L63061 31762
" />
<path d="M63671 31417
L63661 31417
" />
<path d="M63661 31417
L63406 31417
" />
<path d="M63838 31584
L63671 31417
" />
<path d="M63838 31820
L63838 31584
" />
<path d="M61376 33187
L61636 33187
" />
<path d="M61636 33187
L63061 31762
" />
<path d="M63061 31762
L63061 31761
" />
<path d="M63061 31762
L63056 31762
" />
<path d="M63478 32180
L63478 32182
" />
<path d="M63478 32180
L63477 32180
" />
<path d="M63061 31762
L63059 31762
" />
<path d="M63478 32180
L63478 32178
" />
<path d="M63061 31762
L63061 31757
" />
</g>
<g style="fill:#000000; fill-opacity:0.0; 
stroke:#000000; stroke-width:118.11; stroke-opacity:1; 
stroke-linecap:round; stroke-linejoin:round;">
<path d="M61989 33800
L62011 33800
" />
<path d="M62011 33800
L62550 34339
" />
</g>
<g style="fill:#000000; fill-opacity:0.0; 
stroke:#000000; stroke-width:98.4252; stroke-opacity:1; 
stroke-linecap:round; stroke-linejoin:round;">
<path d="M60905 34173
L61616 34173
" />
<path d="M61616 34173
L61989 33800
" />
<path d="M62298 33085
L62327 33085
" />
<path d="M65659 28051
L64926 28784
" />
<path d="M65895 27549
L65659 28051
" />
<path d="M65905 27559
L65895 27549
" />
<path d="M62327 33085
L62657 33413
" />
<path d="M63339 32041
L63339 32044
" />
<path d="M63339 32044
L62298 33085
" />
<path d="M62298 33085
L61989 33394
" />
<path d="M61989 33394
L61989 33800
" />
<path d="M63339 32041
L63339 32050
" />
<path d="M63618 28644
L63618 28641
" />
<path d="M63618 28641
L62732 27755
" />
<path d="M68062 26251
L68267 26456
" />
<path d="M63578 26251
L68062 26251
" />
<path d="M62732 27098
L63578 26251
" />
<path d="M62732 27755
L62732 27098
" />
<path d="M65900 29758
L65900 29756
" />
<path d="M65900 29756
L66401 29255
" />
<path d="M66401 29255
L68555 29255
" />
<path d="M68555 29255
L68700 29110
" />
<path d="M68700 29110
L68700 26590
" />
<path d="M68700 26590
L68566 26456
" />
<path d="M68566 26456
L68267 26456
" />
<path d="M68291 26338
L68326 26374
" />
<path d="M63478 28784
L63477 28784
" />
<path d="M63477 28784
L62303 27610
" />
<path d="M62303 27610
L62303 27559
" />
<path d="M62303 27559
L62303 27192
" />
<path d="M65078 26023
L65236 26023
" />
<path d="M70464 26023
L70972 26531
" />
<path d="M65078 26023
L70188 26023
" />
<path d="M70188 26023
L70464 26023
" />
<path d="M63472 26023
L65236 26023
" />
<path d="M62303 27192
L63472 26023
" />
<path d="M63478 28784
L63473 28784
" />
<path d="M63478 28784
L63478 28782
" />
<path d="M63478 28784
L63478 28784
" />
<path d="M61181 27125
L61507 27125
" />
<path d="M61507 27125
L62165 26456
" />
<path d="M63061 29201
L63059 29201
" />
<path d="M63059 29201
L61181 27322
" />
<path d="M61181 27322
L61181 27125
" />
<path d="M63061 29201
L63059 29201
" />
<path d="M59842 27755
L61334 27755
" />
<path d="M61507 27929
L61507 27925
" />
<path d="M61334 27755
L61507 27929
" />
<path d="M62922 29340
L62922 29339
" />
<path d="M62922 29339
L61507 27925
" />
<path d="M62922 29340
L62919 29340
" />
<path d="M60066 28220
L61519 28220
" />
<path d="M61519 28220
L62043 28744
" />
<path d="M59448 28220
L57842 28220
" />
<path d="M57842 28220
L57677 28385
" />
<path d="M59413 28220
L59448 28220
" />
<path d="M59448 28220
L60066 28220
" />
<path d="M62043 28744
L62779 29480
" />
<path d="M62782 29480
L62779 29480
" />
<path d="M61263 28811
L59429 28811
" />
<path d="M61838 28811
L61263 28811
" />
<path d="M61838 28811
L62643 29616
" />
<path d="M62643 29619
L62643 29616
" />
<path d="M61695 31737
L61695 31751
" />
<path d="M61695 31751
L61896 31951
" />
<path d="M61896 31951
L62320 31951
" />
<path d="M62782 31484
L62782 31488
" />
<path d="M62782 31488
L62320 31951
" />
<path d="M61083 32349
L61054 32349
" />
<path d="M61054 32349
L60460 31755
" />
<path d="M57834 31893
L57834 32244
" />
<path d="M57972 31755
L57834 31893
" />
<path d="M60460 31755
L57972 31755
" />
<path d="M61893 32509
L61243 32509
" />
<path d="M61243 32509
L61083 32349
" />
<path d="M62922 31623
L62922 31625
" />
<path d="M62922 31625
L62037 32509
" />
<path d="M62037 32509
L61893 32509
" />
<path d="M62922 31623
L62915 31623
" />
<path d="M62922 31623
L62922 31617
" />
<path d="M59496 32224
L59496 33059
" />
<path d="M59496 33059
L59574 33137
" />
<path d="M59586 33562
L59594 33358
" />
<path d="M59594 33358
L59566 33330
" />
<path d="M63200 31902
L63196 31902
" />
<path d="M63196 31902
L61437 33661
" />
<path d="M61437 33661
L59685 33661
" />
<path d="M59685 33661
L59586 33562
" />
<path d="M59602 33346
L59586 33330
" />
<path d="M63200 31902
L63200 31902
" />
</g>
<g style="fill:#000000; fill-opacity:0.0; 
stroke:#000000; stroke-width:157.48; stroke-opacity:1; 
stroke-linecap:round; stroke-linejoin:round;">
<path d="M56500 35212
L56500 34059
" />
<path d="M56500 34059
L56496 34055
" />
</g>
<g style="fill:#000000; fill-opacity:0.0; 
stroke:#000000; stroke-width:118.11; stroke-opacity:1; 
stroke-linecap:round; stroke-linejoin:round;">
<path d="M56299 31181
L57507 31181
" />
<path d="M57507 31181
L58515 30173
" />
</g>
<g style="fill:#000000; fill-opacity:0.0; 
stroke:#000000; stroke-width:98.4252; stroke-opacity:1; 
stroke-linecap:round; stroke-linejoin:round;">
<path d="M58421 28818
L58543 28940
" />
</g>
<g style="fill:#000000; fill-opacity:0.0; 
stroke:#000000; stroke-width:118.11; stroke-opacity:1; 
stroke-linecap:round; stroke-linejoin:round;">
<path d="M58515 30173
L58515 28968
" />
</g>
<g style="fill:#000000; fill-opacity:0.0; 
stroke:#000000; stroke-width:98.4252; stroke-opacity:1; 
stroke-linecap:round; stroke-linejoin:round;">
<path d="M58515 28968
L58543 28940
" />
</g>
<g style="fill:#000000; fill-opacity:0.0; 
stroke:#000000; stroke-width:118.11; stroke-opacity:1; 
stroke-linecap:round; stroke-linejoin:round;">
<path d="M56299 30393
L57086 30393
" />
<path d="M57677 29803
L57677 29251
" />
<path d="M57086 30393
L57677 29803
" />
</g>
<g style="fill:#000000; fill-opacity:0.0; 
stroke:#000000; stroke-width:98.4252; stroke-opacity:1; 
stroke-linecap:round; stroke-linejoin:round;">
<path d="M57500 35212
L57500 33444
" />
<path d="M57500 33444
L57834 33110
" />
<path d="M60039 34173
L59960 34173
" />
<path d="M59960 34173
L59500 34633
" />
<path d="M59500 34633
L59500 35212
" />
<path d="M69133 28818
L69185 28818
" />
<path d="M69185 28818
L71248 30881
" />
<path d="M71248 30881
L72133 30881
" />
<path d="M69133 28228
L69578 28228
" />
<path d="M72590 30389
L73082 30881
" />
<path d="M71740 30389
L72590 30389
" />
<path d="M69578 28228
L71740 30389
" />
<path d="M73082 30881
L73133 30881
" />
<path d="M71968 29381
L71736 29381
" />
<path d="M69401 27047
L69133 27047
" />
<path d="M71736 29381
L69401 27047
" />
<path d="M69133 27047
L69240 27047
" />
<path d="M72633 29381
L73133 29881
" />
<path d="M71968 29381
L72633 29381
" />
<path d="M71838 26531
L72263 26531
" />
<path d="M72263 26531
L73133 27401
" />
<path d="M73133 27401
L73133 28881
" />
<path d="M69133 26456
L69708 26456
" />
<path d="M69708 26456
L70562 27311
" />
<path d="M70562 27311
L72133 28881
" />
<path d="M58976 27755
L58976 26811
" />
<path d="M58976 26811
L59094 26692
" />
<path d="M69133 27637
L69429 27637
" />
<path d="M69429 27637
L70984 29192
" />
<path d="M71673 29881
L72133 29881
" />
<path d="M70984 29192
L71673 29881
" />
<path d="M60094 26692
L60748 26692
" />
<path d="M60748 26692
L61181 26259
" />
<path d="M60094 26692
L60118 26692
" />
<path d="M59212 29488
L60698 29488
" />
<path d="M60698 29488
L61122 29064
" />
<path d="M61811 29064
L62504 29758
" />
<path d="M61122 29064
L61811 29064
" />
<path d="M60094 31271
L61882 31271
" />
<path d="M61882 31271
L62226 30927
" />
<path d="M60094 31271
L60094 31204
" />
<path d="M63757 28505
L63757 28505
" />
<path d="M63757 28505
L63169 27917
" />
<path d="M63169 27917
L63169 27559
" />
<path d="M64787 32319
L64788 32319
" />
<path d="M64787 32319
L64787 32322
" />
<path d="M64926 32180
L64926 32182
" />
<path d="M64926 32180
L64928 32180
" />
<path d="M66179 30036
L66183 30036
" />
<path d="M68105 30158
L68307 30158
" />
<path d="M68307 30158
L68713 30563
" />
<path d="M65900 31206
L65902 31206
" />
<path d="M65902 31206
L66157 31460
" />
<path d="M66157 31460
L66314 31460
" />
<path d="M66314 31460
L67617 30158
" />
<path d="M67617 30158
L68105 30158
" />
<path d="M68713 30563
L68808 30563
" />
<path d="M68808 30563
L69215 30156
" />
</g>
<g style="fill:#000000; fill-opacity:1.0; 
stroke:#000000; stroke-width:196.85; stroke-opacity:1; 
stroke-linecap:round; stroke-linejoin:round;">
<polyline style="fill-rule:evenodd;"
points="74557,36120
53970,36120
53970,33292
54619,33292
54742,33622
54780,33679
54924,33734
55509,33149
54924,32564
54780,32620
54633,32940
54619,33292
53970,33292
53970,29012
54926,29012
54982,29156
55302,29303
55654,29317
55944,29209
55848,29304
55784,29460
55614,29389
55410,29389
55222,29467
55078,29611
55000,29799
54999,30002
55077,30191
55221,30335
55409,30413
55613,30413
55767,30349
55767,30498
55848,30694
55941,30787
55848,30879
55767,31074
55767,31225
55614,31161
55410,31161
55222,31239
55078,31382
55000,31570
54999,31774
55077,31962
55221,32106
55409,32184
55613,32185
55713,32143
55768,32292
55721,32271
55368,32257
55038,32380
54982,32417
54926,32562
55511,33147
55517,33141
55519,33144
55514,33149
55519,33155
55517,33157
55511,33151
54926,33737
54982,33881
55302,34028
55654,34041
55925,33941
55925,33941
55925,34168
56011,34378
56172,34538
56204,34552
56204,34748
56110,34812
55990,34990
55948,35201
55948,35223
55990,35434
56110,35613
56289,35732
56500,35774
56710,35732
56889,35613
57000,35448
57110,35613
57289,35732
57500,35774
57710,35732
57889,35613
57954,35516
57963,35543
58131,35723
58354,35825
58399,35834
58498,35768
58498,35214
58490,35214
58490,35211
58498,35211
58498,34656
58399,34590
58354,34599
58131,34702
57963,34882
57954,34908
57889,34812
57765,34729
57765,33567
58011,33567
58092,33552
58165,33504
58215,33432
58232,33346
58232,32874
58217,32793
58170,32720
58106,32676
58165,32638
58184,32610
58226,32651
58334,32696
58554,32696
58628,32623
58628,32225
58620,32225
58620,32222
58628,32222
58628,32214
58631,32214
58631,32222
58639,32222
58639,32225
58631,32225
58631,32623
58705,32696
58924,32696
59033,32651
59116,32568
59117,32566
59173,32604
59230,32616
59230,32619
59229,32620
59057,32791
58964,33015
58964,33258
59057,33483
59228,33654
59374,33715
59391,33743
59395,33746
59398,33750
59497,33849
59583,33906
59599,33910
59582,33996
59582,34175
59312,34445
59254,34532
59250,34553
59234,34633
59234,34729
59110,34812
59045,34908
59036,34882
58868,34702
58645,34599
58600,34590
58501,34656
58501,35211
58509,35211
58509,35214
58501,35214
58501,35768
58600,35834
58645,35825
58868,35723
59036,35543
59045,35516
59110,35613
59289,35732
59500,35774
59710,35732
59889,35613
59944,35531
59944,35547
59959,35627
60007,35701
60079,35750
60165,35768
60834,35768
60914,35752
60988,35705
61038,35633
61055,35547
61055,35478
61700,35478
61802,35458
61816,35448
61893,35464
61979,35448
62052,35400
62164,35288
62780,35288
62900,35408
63110,35495
63337,35496
63547,35409
63708,35248
63795,35039
63795,34938
64513,34221
64631,34221
64631,34440
64676,34549
64759,34632
64868,34677
64999,34677
65073,34603
65073,34147
65076,34147
65076,34603
65150,34677
65281,34677
65389,34632
65472,34549
65517,34440
65517,34221
65443,34147
65076,34147
65073,34147
64705,34147
64631,34221
64513,34221
64647,34086
64705,34144
65073,34144
65073,34136
65076,34136
65076,34144
65443,34144
65517,34070
65517,33850
65472,33742
65429,33699
65443,33633
65443,33161
65428,33081
65380,33007
65340,32980
65340,32885
65331,32840
65320,32784
65262,32697
65170,32605
65188,32579
65228,32552
65298,32482
65327,32439
65353,32422
65922,32991
65790,33123
65712,33311
65712,33514
65790,33702
65934,33847
65958,33857
65958,33915
65904,33926
65830,33973
65780,34045
65763,34131
65763,34427
65778,34507
65825,34581
65898,34630
65984,34647
66456,34647
66523,34635
66565,34677
66673,34722
66893,34722
66966,34648
66966,34281
66970,34281
66970,34648
67043,34722
67263,34722
67371,34677
67397,34651
67423,34677
67531,34722
67751,34722
67825,34648
67825,34281
66970,34281
66966,34281
66959,34281
66959,34277
66966,34277
66966,33910
66970,33910
66970,34277
67825,34277
67825,33910
67751,33836
67531,33836
67423,33881
67397,33907
67371,33881
67263,33836
67043,33836
66970,33910
66966,33910
66893,33836
66673,33836
66565,33881
66522,33924
66490,33917
66490,33857
66513,33847
66658,33703
66736,33515
66736,33312
66705,33238
67594,33238
67643,33287
67633,33311
67633,33514
67711,33702
67855,33847
67881,33857
67828,33910
67828,34277
67836,34277
67836,34281
67828,34281
67828,34648
67902,34722
68121,34722
68230,34677
68273,34634
68338,34647
68811,34647
68891,34632
68964,34585
69014,34513
69031,34427
69031,34131
69016,34051
69007,34037
69063,34092
69171,34137
69302,34137
69376,34063
69376,33607
69379,33607
69379,34063
69453,34137
69584,34137
69692,34092
69775,34009
69820,33901
69820,33681
69747,33607
69379,33607
69376,33607
69008,33607
68935,33681
68935,33901
68965,33975
68896,33928
68840,33917
68840,33854
68824,33775
68820,33752
68762,33666
68644,33547
68657,33515
68657,33312
68579,33123
68466,33009
69009,33009
69009,33094
69022,33160
68979,33202
68935,33311
68935,33530
69008,33604
69376,33604
69376,33596
69379,33596
69379,33604
69747,33604
69820,33530
69820,33311
69794,33247
69838,33256
70192,33256
70273,33241
70346,33193
70396,33121
70413,33035
70413,32562
70398,32482
70351,32409
70287,32365
70346,32327
70396,32255
70401,32228
71704,32228
71733,32271
71898,32381
71733,32492
71613,32670
71571,32881
71613,33092
71733,33271
71912,33391
72123,33433
72144,33433
72355,33391
72534,33271
72592,33184
72623,33250
72803,33418
73033,33503
73132,33437
73132,32883
73135,32883
73135,33437
73233,33503
73464,33418
73644,33250
73746,33027
73755,32981
73689,32883
73135,32883
73132,32883
73124,32883
73124,32880
73132,32880
73132,31883
73135,31883
73135,32880
73689,32880
73755,32781
73746,32736
73644,32512
73503,32381
73644,32250
73746,32027
73755,31981
73689,31883
73135,31883
73132,31883
73124,31883
73124,31880
73132,31880
73132,31872
73135,31872
73135,31880
73689,31880
73755,31781
73746,31736
73644,31512
73464,31345
73438,31335
73534,31271
73653,31092
73695,30881
73653,30670
73534,30492
73369,30381
73534,30271
73653,30092
73695,29881
73653,29670
73534,29492
73369,29381
73534,29271
73653,29092
73695,28881
73653,28670
73534,28492
73399,28402
73399,27401
73390,27357
73379,27299
73321,27213
72451,26343
72365,26285
72276,26268
72233,26200
72160,26150
72074,26133
71602,26133
71522,26148
71448,26196
71405,26259
71366,26200
71294,26150
71208,26133
70950,26133
70652,25835
70566,25778
70464,25757
63472,25757
63370,25778
63311,25817
63284,25835
62736,26383
62736,26343
62649,26133
62489,25973
62279,25885
62052,25885
61842,25972
61681,26132
61594,26342
61594,26569
61620,26632
61517,26737
61516,26735
61452,26692
61512,26654
61561,26581
61579,26496
61579,26023
61563,25943
61516,25869
61444,25820
61358,25802
61003,25802
60923,25817
60849,25865
60800,25937
60783,26023
60783,26281
60637,26427
60574,26427
60484,26292
60305,26172
60094,26130
59883,26172
59704,26292
59649,26374
59649,26358
59634,26278
59587,26204
59515,26154
59429,26137
58759,26137
58679,26152
58605,26200
58556,26272
58539,26358
58539,27027
58554,27107
58601,27181
58673,27230
58710,27238
58710,27363
58659,27373
58586,27420
58536,27492
58519,27578
58519,27933
58523,27954
57952,27954
57940,27946
57854,27928
57500,27928
57419,27943
57346,27991
57296,28063
57279,28149
57279,28622
57294,28702
57341,28775
57405,28819
57346,28857
57296,28929
57279,29015
57279,29488
57294,29568
57341,29642
57401,29683
57401,29688
56972,30118
56760,30118
56750,30093
56657,29999
56749,29907
56830,29712
56830,29501
56750,29305
56600,29155
56405,29074
56193,29074
56050,29134
56097,29012
55511,28427
54926,29012
53970,29012
53970,28568
54619,28568
54742,28898
54780,28954
54924,29010
55509,28425
55514,28425
56099,29010
56243,28954
56390,28634
56403,28282
56281,27951
56243,27895
56099,27839
55514,28425
55509,28425
54924,27839
54780,27895
54633,28215
54619,28568
53970,28568
53970,27837
54926,27837
55511,28422
56097,27837
56041,27693
55721,27546
55368,27533
55038,27655
54982,27693
54926,27837
53970,27837
53970,25690
74557,25690
74557,36120
" /> 
<polyline style="fill-rule:evenodd;"
points="64802,26522
64757,26631
64757,26790
64625,26736
64398,26736
64188,26822
64028,26983
63941,27193
63940,27420
64027,27630
64188,27790
64397,27877
64624,27878
64653,27866
64669,27882
64765,27946
64816,27956
64643,28130
64638,28133
64276,28495
64230,28563
64211,28648
64227,28734
64276,28807
64276,28808
64276,28849
64321,28958
64344,28981
64448,28981
64489,28940
64492,28940
64492,28941
64450,28983
64450,29087
64473,29110
64484,29115
63473,30127
63415,30213
63402,30282
63395,30314
63395,31153
63305,31171
63218,31229
63207,31240
63181,31222
63154,31182
63085,31112
63042,31083
63015,31043
62946,30973
62903,30944
62876,30903
62806,30834
62763,30804
62737,30764
62667,30695
62624,30665
62598,30625
62528,30555
62461,30509
62375,30491
62289,30507
62216,30555
61854,30917
61841,30936
61772,31005
60696,31005
60693,30994
60646,30920
60574,30871
60488,30854
59700,30854
59620,30869
59546,30916
59497,30988
59480,31074
59480,31468
59484,31490
57972,31490
57870,31510
57784,31567
57646,31705
57589,31792
57587,31800
57577,31802
57503,31849
57454,31921
57436,32007
57436,32480
57451,32560
57499,32634
57562,32677
57503,32715
57454,32788
57436,32874
57436,33132
57312,33256
57254,33343
57251,33358
57234,33444
57234,34729
57110,34812
57000,34977
56889,34812
56795,34748
56795,34549
56819,34539
56979,34378
57066,34169
57067,33942
56980,33732
56819,33571
56610,33484
56383,33484
56321,33509
56390,33358
56403,33006
56281,32676
56243,32620
56099,32564
56110,32553
56155,32573
56398,32582
56625,32498
56663,32472
56685,32357
56299,31970
56293,31976
56291,31974
56296,31968
56301,31968
56688,32355
56803,32332
56904,32112
56913,31869
56828,31642
56803,31604
56688,31581
56301,31968
56296,31968
56291,31962
56293,31960
56299,31966
56685,31579
56680,31551
56749,31482
56760,31456
57507,31456
57613,31435
57702,31375
58507,30571
58751,30571
58832,30556
58905,30508
58949,30445
58987,30504
59059,30553
59145,30571
59618,30571
59698,30556
59723,30540
59833,30650
60043,30738
60270,30738
60480,30651
60641,30491
60662,30438
60799,30438
60806,30445
60873,30492
60959,30510
61045,30494
61115,30447
61123,30455
61209,30513
61311,30533
61995,30533
62097,30513
62183,30455
62224,30414
62283,30454
62369,30473
62455,30457
62528,30408
62528,30408
62570,30408
62678,30363
62701,30340
62701,30236
62660,30195
62661,30192
62662,30192
62704,30234
62808,30234
62831,30211
62876,30102
62876,30060
62876,30060
62905,30017
62946,29991
63015,29921
63044,29878
63085,29851
63154,29782
63184,29739
63224,29712
63294,29643
63323,29600
63363,29573
63433,29503
63462,29461
63502,29434
63572,29364
63601,29321
63642,29295
63711,29225
63740,29182
63781,29155
63850,29086
63880,29043
63920,29016
63990,28947
64019,28904
64059,28877
64129,28807
64175,28740
64193,28654
64177,28568
64129,28495
63767,28133
63749,28121
63536,27909
63559,27894
63608,27822
63626,27736
63626,27381
63611,27301
63563,27227
63491,27178
63405,27161
63045,27161
63688,26517
64806,26517
64802,26522
" /> 
<polyline style="fill-rule:evenodd;"
points="71060,31069
71146,31127
71248,31147
71650,31147
71733,31271
71898,31381
71733,31492
71635,31637
70402,31637
70398,31616
70351,31542
70278,31493
70192,31476
69838,31476
69763,31490
69868,31385
69913,31276
69913,31232
69974,31207
70067,31114
70067,31010
69744,30687
69739,30693
69736,30691
69742,30685
69747,30685
70069,31008
70173,31008
70266,30915
70311,30807
70311,30689
70266,30581
70111,30425
70006,30425
69747,30685
69742,30685
69736,30680
69739,30677
69744,30683
70004,30423
70004,30319
69849,30163
69740,30119
69680,30119
69643,30063
69309,29729
69241,29683
69156,29664
69070,29680
68997,29729
68788,29938
68742,30005
68729,30062
68674,30050
68607,30063
68602,30033
68553,29960
68303,29709
68235,29663
68150,29645
68064,29661
67991,29709
67808,29892
67617,29892
67515,29912
67429,29970
66516,30883
66189,30555
66121,30509
66036,30491
65950,30507
65877,30555
65807,30625
65778,30668
65737,30695
65668,30764
65638,30807
65598,30834
65529,30903
65499,30946
65459,30973
65459,30973
65417,30973
65309,31018
65286,31041
65286,31145
65327,31186
65326,31189
65325,31189
65283,31148
65179,31148
65156,31171
65111,31279
65111,31321
65111,31321
65082,31364
65041,31391
64972,31460
64942,31503
64902,31530
64833,31599
64803,31642
64763,31669
64693,31738
64664,31781
64624,31808
64554,31878
64525,31921
64485,31947
64415,32017
64386,32060
64345,32086
64276,32156
64230,32223
64211,32309
64227,32395
64276,32468
64638,32830
64656,32842
64799,32986
64773,33003
64723,33075
64706,33161
64706,33276
64413,33568
64372,33470
64217,33315
64113,33315
63853,33575
63858,33581
63856,33583
63851,33577
63591,33837
63591,33941
63746,34097
63844,34137
63543,34439
63490,34417
63490,33835
63588,33835
63848,33575
63843,33569
63845,33567
63851,33573
64110,33313
64110,33208
63955,33053
63847,33008
63786,33008
63749,32953
63694,32897
63750,32841
63767,32830
63839,32758
63859,32754
63945,32697
64002,32611
64006,32591
64129,32468
64175,32401
64193,32315
64177,32229
64129,32156
64129,32156
64129,32114
64084,32006
64061,31983
64043,31983
64084,31922
64104,31820
64104,31584
64096,31542
64084,31482
64026,31396
63927,31297
63927,30425
64911,29440
64945,29463
64972,29503
65041,29573
65084,29602
65111,29643
65181,29712
65223,29742
65250,29782
65320,29851
65363,29881
65389,29921
65459,29991
65502,30020
65529,30060
65598,30130
65641,30159
65668,30199
65737,30269
65780,30298
65807,30339
65877,30408
65944,30454
66030,30473
66116,30457
66189,30408
66551,30046
66597,29979
66615,29893
66599,29807
66551,29734
66481,29664
66438,29635
66422,29610
66511,29521
68555,29521
68656,29501
68743,29443
68888,29298
68943,29216
69207,29216
71060,31069
" /> 
<polyline style="fill-rule:evenodd;"
points="68265,30678
68599,31012
68666,31058
68739,31074
68738,31075
68738,31193
68759,31244
68575,31243
68366,31330
68214,31481
68191,31426
68099,31334
67994,31334
67672,31656
67677,31662
67675,31664
67669,31659
67664,31664
67662,31662
67667,31656
67662,31651
67664,31648
67669,31654
67992,31332
67992,31227
67899,31135
67791,31090
67736,31090
67941,30885
67987,30817
68006,30732
67991,30656
68060,30671
68146,30655
68218,30607
68265,30678
" /> 
<polyline style="fill-rule:evenodd;"
points="72733,31271
72829,31335
72803,31345
72623,31512
72592,31579
72534,31492
72369,31381
72534,31271
72633,31122
72733,31271
" /> 
<polyline style="fill-rule:evenodd;"
points="69333,31170
69328,31176
69333,31181
69331,31184
69325,31178
69320,31184
69318,31181
69323,31176
69318,31170
69320,31168
69325,31174
69331,31168
69333,31170
" /> 
<polyline style="fill-rule:evenodd;"
points="61561,29483
61556,29489
61561,29495
61559,29497
61553,29491
61548,29497
61546,29495
61551,29489
61546,29483
61548,29481
61553,29487
61559,29481
61561,29483
" /> 
<polyline style="fill-rule:evenodd;"
points="65728,26617
65802,26691
66258,26691
66258,26683
66261,26683
66261,26691
66269,26691
66269,26694
66261,26694
66261,26702
66258,26702
66258,26694
65802,26694
65728,26768
65728,26928
65758,27002
65642,27049
65642,27001
65569,26927
65201,26927
65201,26935
65198,26935
65198,26927
65190,26927
65190,26924
65198,26924
65198,26916
65201,26916
65201,26924
65569,26924
65642,26850
65642,26631
65597,26522
65593,26517
65728,26517
65728,26617
" /> 
</g>
<g style="fill:#FFFFFF; fill-opacity:1.0; 
stroke:#FFFFFF; stroke-width:196.85; stroke-opacity:1; 
stroke-linecap:round; stroke-linejoin:round;">
</g>
<g style="fill:#FFFFFF; fill-opacity:1.0; 
stroke:#FFFFFF; stroke-width:0; stroke-opacity:1; 
stroke-linecap:round; stroke-linejoin:round;">
<circle cx="60157.5" cy="30167.3" r="68.8976" /> 
</g>
<g style="fill:#FFFFFF; fill-opacity:1.0; 
stroke:#FFFFFF; stroke-width:39.3701; stroke-opacity:1; 
stroke-linecap:round; stroke-linejoin:round;">
</g>
<g style="fill:#FFFFFF; fill-opacity:1.0; 
stroke:#FFFFFF; stroke-width:0; stroke-opacity:1; 
stroke-linecap:round; stroke-linejoin:round;">
<circle cx="63224.4" cy="34925.2" r="68.8976" /> 
</g>
<g style="fill:#FFFFFF; fill-opacity:1.0; 
stroke:#FFFFFF; stroke-width:39.3701; stroke-opacity:1; 
stroke-linecap:round; stroke-linejoin:round;">
</g>
<g style="fill:#FFFFFF; fill-opacity:1.0; 
stroke:#FFFFFF; stroke-width:0; stroke-opacity:1; 
stroke-linecap:round; stroke-linejoin:round;">
<circle cx="64511.8" cy="27307.1" r="68.8976" /> 
</g>
<g style="fill:#FFFFFF; fill-opacity:1.0; 
stroke:#FFFFFF; stroke-width:39.3701; stroke-opacity:1; 
stroke-linecap:round; stroke-linejoin:round;">
</g>
<g style="fill:#FFFFFF; fill-opacity:1.0; 
stroke:#FFFFFF; stroke-width:0; stroke-opacity:1; 
stroke-linecap:round; stroke-linejoin:round;">
<circle cx="68689" cy="31815" r="68.8976" /> 
</g>
<g style="fill:#FFFFFF; fill-opacity:1.0; 
stroke:#FFFFFF; stroke-width:39.3701; stroke-opacity:1; 
stroke-linecap:round; stroke-linejoin:round;">
</g>
<g style="fill:#FFFFFF; fill-opacity:1.0; 
stroke:#FFFFFF; stroke-width:0; stroke-opacity:1; 
stroke-linecap:round; stroke-linejoin:round;">
<circle cx="65905.5" cy="27559.1" r="68.8976" /> 
</g>
<g style="fill:#FFFFFF; fill-opacity:1.0; 
stroke:#FFFFFF; stroke-width:39.3701; stroke-opacity:1; 
stroke-linecap:round; stroke-linejoin:round;">
</g>
<g style="fill:#FFFFFF; fill-opacity:1.0; 
stroke:#FFFFFF; stroke-width:0; stroke-opacity:1; 
stroke-linecap:round; stroke-linejoin:round;">
<circle cx="62657.5" cy="33413.4" r="68.8976" /> 
</g>
<g style="fill:#FFFFFF; fill-opacity:1.0; 
stroke:#FFFFFF; stroke-width:39.3701; stroke-opacity:1; 
stroke-linecap:round; stroke-linejoin:round;">
</g>
<g style="fill:#FFFFFF; fill-opacity:1.0; 
stroke:#FFFFFF; stroke-width:0; stroke-opacity:1; 
stroke-linecap:round; stroke-linejoin:round;">
<circle cx="62165.4" cy="26456.7" r="68.8976" /> 
</g>
<g style="fill:#FFFFFF; fill-opacity:1.0; 
stroke:#FFFFFF; stroke-width:39.3701; stroke-opacity:1; 
stroke-linecap:round; stroke-linejoin:round;">
</g>
<g style="fill:#FFFFFF; fill-opacity:1.0; 
stroke:#FFFFFF; stroke-width:0; stroke-opacity:1; 
stroke-linecap:round; stroke-linejoin:round;">
<circle cx="56496.1" cy="34055.1" r="68.8976" /> 
</g>
<g style="fill:#FFFFFF; fill-opacity:1.0; 
stroke:#FFFFFF; stroke-width:39.3701; stroke-opacity:1; 
stroke-linecap:round; stroke-linejoin:round;">
</g>
<g style="fill:#FFFFFF; fill-opacity:1.0; 
stroke:#FFFFFF; stroke-width:0; stroke-opacity:1; 
stroke-linecap:round; stroke-linejoin:round;">
<circle cx="68145.7" cy="33413.4" r="68.8976" /> 
</g>
<g style="fill:#FFFFFF; fill-opacity:1.0; 
stroke:#FFFFFF; stroke-width:39.3701; stroke-opacity:1; 
stroke-linecap:round; stroke-linejoin:round;">
</g>
<g style="fill:#FFFFFF; fill-opacity:1.0; 
stroke:#FFFFFF; stroke-width:0; stroke-opacity:1; 
stroke-linecap:round; stroke-linejoin:round;">
<circle cx="66224.4" cy="33413.4" r="68.8976" /> 
</g>
<g style="fill:#FFFFFF; fill-opacity:1.0; 
stroke:#FFFFFF; stroke-width:39.3701; stroke-opacity:1; 
stroke-linecap:round; stroke-linejoin:round;">
</g>
<g style="fill:#FFFFFF; fill-opacity:1.0; 
stroke:#FFFFFF; stroke-width:0; stroke-opacity:1; 
stroke-linecap:round; stroke-linejoin:round;">
<circle cx="59574.8" cy="33137.8" r="68.8976" /> 
</g>
<g style="fill:#FFFFFF; fill-opacity:1.0; 
stroke:#FFFFFF; stroke-width:39.3701; stroke-opacity:1; 
stroke-linecap:round; stroke-linejoin:round;">
</g>
<g style="fill:#FFFFFF; fill-opacity:1.0; 
stroke:#FFFFFF; stroke-width:0; stroke-opacity:1; 
stroke-linecap:round; stroke-linejoin:round;">
<circle cx="72133.9" cy="28881.9" r="68.8976" /> 
</g>
<g style="fill:#FFFFFF; fill-opacity:1.0; 
stroke:#FFFFFF; stroke-width:39.3701; stroke-opacity:1; 
stroke-linecap:round; stroke-linejoin:round;">
</g>
<g style="fill:#FFFFFF; fill-opacity:1.0; 
stroke:#FFFFFF; stroke-width:0; stroke-opacity:1; 
stroke-linecap:round; stroke-linejoin:round;">
<circle cx="73133.9" cy="28881.9" r="68.8976" /> 
</g>
<g style="fill:#FFFFFF; fill-opacity:1.0; 
stroke:#FFFFFF; stroke-width:39.3701; stroke-opacity:1; 
stroke-linecap:round; stroke-linejoin:round;">
</g>
<g style="fill:#FFFFFF; fill-opacity:1.0; 
stroke:#FFFFFF; stroke-width:0; stroke-opacity:1; 
stroke-linecap:round; stroke-linejoin:round;">
<circle cx="72133.9" cy="29881.9" r="68.8976" /> 
</g>
<g style="fill:#FFFFFF; fill-opacity:1.0; 
stroke:#FFFFFF; stroke-width:39.3701; stroke-opacity:1; 
stroke-linecap:round; stroke-linejoin:round;">
</g>
<g style="fill:#FFFFFF; fill-opacity:1.0; 
stroke:#FFFFFF; stroke-width:0; stroke-opacity:1; 
stroke-linecap:round; stroke-linejoin:round;">
<circle cx="73133.9" cy="29881.9" r="68.8976" /> 
</g>
<g style="fill:#FFFFFF; fill-opacity:1.0; 
stroke:#FFFFFF; stroke-width:39.3701; stroke-opacity:1; 
stroke-linecap:round; stroke-linejoin:round;">
</g>
<g style="fill:#FFFFFF; fill-opacity:1.0; 
stroke:#FFFFFF; stroke-width:0; stroke-opacity:1; 
stroke-linecap:round; stroke-linejoin:round;">
<circle cx="72133.9" cy="30881.9" r="68.8976" /> 
</g>
<g style="fill:#FFFFFF; fill-opacity:1.0; 
stroke:#FFFFFF; stroke-width:39.3701; stroke-opacity:1; 
stroke-linecap:round; stroke-linejoin:round;">
</g>
<g style="fill:#FFFFFF; fill-opacity:1.0; 
stroke:#FFFFFF; stroke-width:0; stroke-opacity:1; 
stroke-linecap:round; stroke-linejoin:round;">
<circle cx="73133.9" cy="30881.9" r="68.8976" /> 
</g>
<g style="fill:#FFFFFF; fill-opacity:1.0; 
stroke:#FFFFFF; stroke-width:39.3701; stroke-opacity:1; 
stroke-linecap:round; stroke-linejoin:round;">
</g>
<g style="fill:#FFFFFF; fill-opacity:1.0; 
stroke:#FFFFFF; stroke-width:0; stroke-opacity:1; 
stroke-linecap:round; stroke-linejoin:round;">
<circle cx="72133.9" cy="31881.9" r="68.8976" /> 
</g>
<g style="fill:#FFFFFF; fill-opacity:1.0; 
stroke:#FFFFFF; stroke-width:39.3701; stroke-opacity:1; 
stroke-linecap:round; stroke-linejoin:round;">
</g>
<g style="fill:#FFFFFF; fill-opacity:1.0; 
stroke:#FFFFFF; stroke-width:0; stroke-opacity:1; 
stroke-linecap:round; stroke-linejoin:round;">
<circle cx="73133.9" cy="31881.9" r="68.8976" /> 
</g>
<g style="fill:#FFFFFF; fill-opacity:1.0; 
stroke:#FFFFFF; stroke-width:39.3701; stroke-opacity:1; 
stroke-linecap:round; stroke-linejoin:round;">
</g>
<g style="fill:#FFFFFF; fill-opacity:1.0; 
stroke:#FFFFFF; stroke-width:0; stroke-opacity:1; 
stroke-linecap:round; stroke-linejoin:round;">
<circle cx="72133.9" cy="32881.9" r="68.8976" /> 
</g>
<g style="fill:#FFFFFF; fill-opacity:1.0; 
stroke:#FFFFFF; stroke-width:39.3701; stroke-opacity:1; 
stroke-linecap:round; stroke-linejoin:round;">
</g>
<g style="fill:#FFFFFF; fill-opacity:1.0; 
stroke:#FFFFFF; stroke-width:0; stroke-opacity:1; 
stroke-linecap:round; stroke-linejoin:round;">
<circle cx="73133.9" cy="32881.9" r="68.8976" /> 
</g>
<g style="fill:#FFFFFF; fill-opacity:1.0; 
stroke:#FFFFFF; stroke-width:39.3701; stroke-opacity:1; 
stroke-linecap:round; stroke-linejoin:round;">
</g>
<g style="fill:#FFFFFF; fill-opacity:1.0; 
stroke:#FFFFFF; stroke-width:0; stroke-opacity:1; 
stroke-linecap:round; stroke-linejoin:round;">
<circle cx="60500" cy="35212.6" r="68.8976" /> 
</g>
<g style="fill:#FFFFFF; fill-opacity:1.0; 
stroke:#FFFFFF; stroke-width:39.3701; stroke-opacity:1; 
stroke-linecap:round; stroke-linejoin:round;">
</g>
<g style="fill:#FFFFFF; fill-opacity:1.0; 
stroke:#FFFFFF; stroke-width:0; stroke-opacity:1; 
stroke-linecap:round; stroke-linejoin:round;">
<circle cx="59500" cy="35212.6" r="68.8976" /> 
</g>
<g style="fill:#FFFFFF; fill-opacity:1.0; 
stroke:#FFFFFF; stroke-width:39.3701; stroke-opacity:1; 
stroke-linecap:round; stroke-linejoin:round;">
</g>
<g style="fill:#FFFFFF; fill-opacity:1.0; 
stroke:#FFFFFF; stroke-width:0; stroke-opacity:1; 
stroke-linecap:round; stroke-linejoin:round;">
<circle cx="58500" cy="35212.6" r="68.8976" /> 
</g>
<g style="fill:#FFFFFF; fill-opacity:1.0; 
stroke:#FFFFFF; stroke-width:39.3701; stroke-opacity:1; 
stroke-linecap:round; stroke-linejoin:round;">
</g>
<g style="fill:#FFFFFF; fill-opacity:1.0; 
stroke:#FFFFFF; stroke-width:0; stroke-opacity:1; 
stroke-linecap:round; stroke-linejoin:round;">
<circle cx="57500" cy="35212.6" r="68.8976" /> 
</g>
<g style="fill:#FFFFFF; fill-opacity:1.0; 
stroke:#FFFFFF; stroke-width:39.3701; stroke-opacity:1; 
stroke-linecap:round; stroke-linejoin:round;">
</g>
<g style="fill:#FFFFFF; fill-opacity:1.0; 
stroke:#FFFFFF; stroke-width:0; stroke-opacity:1; 
stroke-linecap:round; stroke-linejoin:round;">
<circle cx="56500" cy="35212.6" r="68.8976" /> 
</g>
<g style="fill:#FFFFFF; fill-opacity:1.0; 
stroke:#FFFFFF; stroke-width:39.3701; stroke-opacity:1; 
stroke-linecap:round; stroke-linejoin:round;">
</g>
<g style="fill:#FFFFFF; fill-opacity:1.0; 
stroke:#FFFFFF; stroke-width:0; stroke-opacity:1; 
stroke-linecap:round; stroke-linejoin:round;">
<circle cx="59094.5" cy="26692.9" r="68.8976" /> 
</g>
<g style="fill:#FFFFFF; fill-opacity:1.0; 
stroke:#FFFFFF; stroke-width:39.3701; stroke-opacity:1; 
stroke-linecap:round; stroke-linejoin:round;">
</g>
<g style="fill:#FFFFFF; fill-opacity:1.0; 
stroke:#FFFFFF; stroke-width:0; stroke-opacity:1; 
stroke-linecap:round; stroke-linejoin:round;">
<circle cx="60094.5" cy="26692.9" r="68.8976" /> 
</g>
<g style="fill:#FFFFFF; fill-opacity:1.0; 
stroke:#FFFFFF; stroke-width:39.3701; stroke-opacity:1; 
stroke-linecap:round; stroke-linejoin:round;">
</g>
<g style="fill:#FFFFFF; fill-opacity:1.0; 
stroke:#FFFFFF; stroke-width:0; stroke-opacity:1; 
stroke-linecap:round; stroke-linejoin:round;">
<circle cx="55511.8" cy="29901.6" r="68.8976" /> 
</g>
<g style="fill:#FFFFFF; fill-opacity:1.0; 
stroke:#FFFFFF; stroke-width:39.3701; stroke-opacity:1; 
stroke-linecap:round; stroke-linejoin:round;">
</g>
<g style="fill:#FFFFFF; fill-opacity:1.0; 
stroke:#FFFFFF; stroke-width:0; stroke-opacity:1; 
stroke-linecap:round; stroke-linejoin:round;">
<circle cx="56299.2" cy="31181.1" r="68.8976" /> 
</g>
<g style="fill:#FFFFFF; fill-opacity:1.0; 
stroke:#FFFFFF; stroke-width:39.3701; stroke-opacity:1; 
stroke-linecap:round; stroke-linejoin:round;">
</g>
<g style="fill:#FFFFFF; fill-opacity:1.0; 
stroke:#FFFFFF; stroke-width:0; stroke-opacity:1; 
stroke-linecap:round; stroke-linejoin:round;">
<circle cx="56299.2" cy="30393.7" r="68.8976" /> 
</g>
<g style="fill:#FFFFFF; fill-opacity:1.0; 
stroke:#FFFFFF; stroke-width:39.3701; stroke-opacity:1; 
stroke-linecap:round; stroke-linejoin:round;">
</g>
<g style="fill:#FFFFFF; fill-opacity:1.0; 
stroke:#FFFFFF; stroke-width:0; stroke-opacity:1; 
stroke-linecap:round; stroke-linejoin:round;">
<circle cx="56299.2" cy="31968.5" r="68.8976" /> 
</g>
<g style="fill:#FFFFFF; fill-opacity:1.0; 
stroke:#FFFFFF; stroke-width:39.3701; stroke-opacity:1; 
stroke-linecap:round; stroke-linejoin:round;">
</g>
<g style="fill:#FFFFFF; fill-opacity:1.0; 
stroke:#FFFFFF; stroke-width:0; stroke-opacity:1; 
stroke-linecap:round; stroke-linejoin:round;">
<circle cx="56299.2" cy="29606.3" r="68.8976" /> 
</g>
<g style="fill:#FFFFFF; fill-opacity:1.0; 
stroke:#FFFFFF; stroke-width:39.3701; stroke-opacity:1; 
stroke-linecap:round; stroke-linejoin:round;">
</g>
<g style="fill:#FFFFFF; fill-opacity:1.0; 
stroke:#FFFFFF; stroke-width:0; stroke-opacity:1; 
stroke-linecap:round; stroke-linejoin:round;">
<circle cx="55511.8" cy="33149.6" r="68.8976" /> 
</g>
<g style="fill:#FFFFFF; fill-opacity:1.0; 
stroke:#FFFFFF; stroke-width:39.3701; stroke-opacity:1; 
stroke-linecap:round; stroke-linejoin:round;">
</g>
<g style="fill:#FFFFFF; fill-opacity:1.0; 
stroke:#FFFFFF; stroke-width:0; stroke-opacity:1; 
stroke-linecap:round; stroke-linejoin:round;">
<circle cx="55511.8" cy="28425.2" r="68.8976" /> 
</g>
<g style="fill:#FFFFFF; fill-opacity:1.0; 
stroke:#FFFFFF; stroke-width:39.3701; stroke-opacity:1; 
stroke-linecap:round; stroke-linejoin:round;">
</g>
<g style="fill:#FFFFFF; fill-opacity:1.0; 
stroke:#FFFFFF; stroke-width:0; stroke-opacity:1; 
stroke-linecap:round; stroke-linejoin:round;">
<circle cx="55511.8" cy="31673.2" r="68.8976" /> 
</g>
<g style="fill:#FFFFFF; fill-opacity:1.0; 
stroke:#FFFFFF; stroke-width:39.3701; stroke-opacity:1; 
stroke-linecap:round; stroke-linejoin:round;">
</g>
<g style="fill:#000000; fill-opacity:1.0; 
stroke:#000000; stroke-width:39.3701; stroke-opacity:1; 
stroke-linecap:round; stroke-linejoin:round;">
</g> 
</svg>
